<svg xmlns="http://www.w3.org/2000/svg" xmlns:xlink="http://www.w3.org/1999/xlink" width="272" zoomAndPan="magnify" viewBox="0 0 204 154.499995" height="206" preserveAspectRatio="xMidYMid meet" version="1.0"><defs><g/><clipPath id="2c3ccefa14"><path d="M 0.328125 0 L 11 0 L 11 10 L 0.328125 10 Z M 0.328125 0 " clip-rule="nonzero"/></clipPath><clipPath id="8d12736a2c"><path d="M 54.511719 52 L 161.96875 52 L 161.96875 112.882812 L 54.511719 112.882812 Z M 54.511719 52 " clip-rule="nonzero"/></clipPath><clipPath id="ddee18a8a5"><path d="M 55.03125 62.460938 C 54.941406 62.203125 54.871094 61.933594 54.804688 61.664062 C 54.871094 61.933594 54.941406 62.203125 55.03125 62.460938 Z M 55.324219 63.390625 C 55.242188 63.152344 55.164062 62.910156 55.09375 62.671875 C 55.164062 62.910156 55.242188 63.152344 55.324219 63.390625 Z M 55.621094 64.230469 C 55.53125 63.980469 55.433594 63.722656 55.351562 63.472656 C 55.433594 63.722656 55.53125 63.980469 55.621094 64.230469 Z M 55.972656 65.089844 C 55.871094 64.871094 55.78125 64.652344 55.703125 64.429688 C 55.78125 64.652344 55.871094 64.871094 55.972656 65.089844 Z M 56.34375 65.929688 C 56.222656 65.691406 56.113281 65.441406 56.011719 65.199219 C 56.113281 65.441406 56.222656 65.691406 56.34375 65.929688 Z M 56.722656 66.730469 C 56.621094 66.53125 56.523438 66.320312 56.421875 66.109375 C 56.523438 66.320312 56.621094 66.53125 56.722656 66.730469 Z M 57.160156 67.570312 C 57.03125 67.339844 56.902344 67.097656 56.78125 66.859375 C 56.902344 67.097656 57.03125 67.339844 57.160156 67.570312 Z M 57.582031 68.320312 C 57.460938 68.128906 57.351562 67.929688 57.25 67.738281 C 57.351562 67.929688 57.460938 68.128906 57.582031 68.320312 Z M 58.082031 69.148438 C 57.941406 68.917969 57.800781 68.699219 57.660156 68.46875 C 57.800781 68.699219 57.941406 68.917969 58.082031 69.148438 Z M 58.53125 69.867188 C 58.410156 69.675781 58.289062 69.488281 58.171875 69.296875 C 58.289062 69.488281 58.410156 69.675781 58.53125 69.867188 Z M 59.089844 70.675781 C 58.929688 70.457031 58.78125 70.238281 58.628906 70.007812 C 58.78125 70.238281 58.929688 70.457031 59.089844 70.675781 Z M 59.570312 71.347656 C 59.441406 71.167969 59.300781 70.976562 59.171875 70.796875 C 59.300781 70.976562 59.441406 71.167969 59.570312 71.347656 Z M 60.179688 72.144531 C 60.007812 71.9375 59.851562 71.726562 59.691406 71.507812 C 59.851562 71.726562 60.007812 71.9375 60.179688 72.144531 Z M 60.6875 72.796875 C 60.550781 72.605469 60.398438 72.425781 60.25 72.246094 C 60.398438 72.425781 60.550781 72.605469 60.6875 72.796875 Z M 61.339844 73.574219 C 61.167969 73.367188 61 73.164062 60.828125 72.957031 C 61 73.164062 61.167969 73.367188 61.339844 73.574219 Z M 61.878906 74.183594 C 61.71875 74.003906 61.558594 73.824219 61.398438 73.636719 C 61.558594 73.824219 61.71875 74.003906 61.878906 74.183594 Z M 63.136719 75.554688 C 62.757812 75.15625 62.386719 74.753906 62.027344 74.355469 C 62.386719 74.753906 62.757812 75.15625 63.136719 75.554688 Z M 63.835938 76.273438 C 63.65625 76.09375 63.476562 75.902344 63.296875 75.714844 C 63.476562 75.902344 63.65625 76.09375 63.835938 76.273438 Z M 64.445312 76.882812 C 64.246094 76.683594 64.058594 76.492188 63.855469 76.292969 C 64.058594 76.492188 64.246094 76.683594 64.445312 76.882812 Z M 65.136719 77.554688 C 64.957031 77.382812 64.777344 77.203125 64.605469 77.03125 C 64.777344 77.203125 64.957031 77.382812 65.136719 77.554688 Z M 65.824219 78.191406 C 65.617188 78.003906 65.40625 77.800781 65.195312 77.601562 C 65.40625 77.800781 65.617188 78.003906 65.824219 78.191406 Z M 66.484375 78.800781 C 66.304688 78.632812 66.117188 78.472656 65.9375 78.300781 C 66.117188 78.472656 66.304688 78.632812 66.484375 78.800781 Z M 67.183594 79.433594 C 66.984375 79.25 66.785156 79.070312 66.585938 78.890625 C 66.785156 79.070312 66.984375 79.25 67.183594 79.433594 Z M 67.863281 80.03125 C 67.703125 79.890625 67.535156 79.742188 67.363281 79.589844 C 67.535156 79.742188 67.703125 79.890625 67.863281 80.03125 Z M 68.625 80.679688 C 68.414062 80.511719 68.203125 80.332031 68.003906 80.152344 C 68.203125 80.332031 68.414062 80.511719 68.625 80.679688 Z M 69.304688 81.269531 C 69.132812 81.121094 68.953125 80.972656 68.785156 80.820312 C 68.953125 80.972656 69.132812 81.121094 69.304688 81.269531 Z M 70.042969 81.890625 C 69.832031 81.71875 69.632812 81.539062 69.425781 81.371094 C 69.632812 81.539062 69.832031 81.71875 70.042969 81.890625 Z M 70.714844 82.449219 C 70.5625 82.320312 70.414062 82.199219 70.261719 82.070312 C 70.414062 82.199219 70.5625 82.320312 70.714844 82.449219 Z M 71.523438 83.109375 C 71.324219 82.941406 71.113281 82.78125 70.921875 82.621094 C 71.113281 82.78125 71.324219 82.941406 71.523438 83.109375 Z M 73.332031 84.589844 L 72.613281 84.007812 C 72.851562 84.199219 73.089844 84.398438 73.332031 84.589844 Z M 80.816406 90.914062 C 80.765625 90.863281 80.726562 90.824219 80.675781 90.785156 C 80.726562 90.824219 80.765625 90.863281 80.816406 90.914062 Z M 82.234375 69.667969 C 82.195312 69.636719 82.15625 69.597656 82.117188 69.566406 Z M 82.675781 70.046875 C 82.625 70.015625 82.585938 69.976562 82.546875 69.9375 Z M 82.886719 70.246094 C 82.835938 70.199219 82.796875 70.15625 82.746094 70.117188 C 82.796875 70.15625 82.835938 70.199219 82.886719 70.246094 Z M 84.214844 71.566406 C 84.195312 71.535156 84.164062 71.507812 84.136719 71.476562 C 84.164062 71.507812 84.195312 71.535156 84.214844 71.566406 Z M 84.394531 71.757812 C 84.363281 71.726562 84.335938 71.695312 84.316406 71.667969 C 84.335938 71.695312 84.363281 71.726562 84.394531 71.757812 Z M 84.945312 72.40625 C 84.925781 72.386719 84.914062 72.355469 84.894531 72.335938 C 84.914062 72.355469 84.925781 72.386719 84.945312 72.40625 Z M 85.253906 72.796875 C 85.234375 72.777344 85.222656 72.753906 85.203125 72.726562 C 85.222656 72.753906 85.234375 72.777344 85.253906 72.796875 Z M 85.554688 73.207031 C 85.535156 73.175781 85.515625 73.144531 85.496094 73.117188 C 85.515625 73.144531 85.535156 73.175781 85.554688 73.207031 Z M 86.0625 74.003906 C 86.042969 73.976562 86.023438 73.933594 86.003906 73.90625 Z M 86.171875 74.203125 C 86.152344 74.164062 86.132812 74.136719 86.113281 74.105469 C 86.132812 74.136719 86.152344 74.164062 86.171875 74.203125 Z M 86.285156 74.40625 C 86.265625 74.363281 86.242188 74.335938 86.222656 74.304688 C 86.242188 74.335938 86.265625 74.363281 86.285156 74.40625 Z M 86.382812 74.605469 C 86.363281 74.566406 86.355469 74.535156 86.332031 74.503906 C 86.355469 74.535156 86.363281 74.566406 86.382812 74.605469 Z M 86.472656 74.804688 C 86.464844 74.765625 86.445312 74.734375 86.433594 74.703125 C 86.445312 74.734375 86.464844 74.765625 86.472656 74.804688 Z M 86.5625 75.003906 C 86.554688 74.972656 86.542969 74.945312 86.523438 74.914062 C 86.542969 74.945312 86.554688 74.972656 86.5625 75.003906 Z M 86.652344 75.203125 C 86.644531 75.175781 86.625 75.15625 86.613281 75.125 C 86.625 75.15625 86.644531 75.175781 86.652344 75.203125 Z M 86.734375 75.402344 C 86.722656 75.382812 86.714844 75.355469 86.703125 75.335938 C 86.714844 75.355469 86.722656 75.382812 86.734375 75.402344 Z M 86.804688 75.605469 C 86.792969 75.585938 86.785156 75.574219 86.785156 75.554688 C 86.785156 75.574219 86.792969 75.585938 86.804688 75.605469 Z M 87.003906 76.292969 C 86.992188 76.273438 86.992188 76.253906 86.984375 76.222656 C 86.992188 76.253906 86.992188 76.273438 87.003906 76.292969 Z M 87.054688 76.523438 C 87.042969 76.492188 87.035156 76.464844 87.035156 76.433594 C 87.035156 76.464844 87.042969 76.492188 87.054688 76.523438 Z M 87.082031 76.734375 C 87.082031 76.703125 87.074219 76.671875 87.074219 76.632812 C 87.074219 76.671875 87.082031 76.703125 87.082031 76.734375 Z M 87.113281 76.941406 C 87.113281 76.914062 87.113281 76.882812 87.101562 76.851562 C 87.113281 76.882812 87.113281 76.914062 87.113281 76.941406 Z M 87.144531 77.152344 C 87.144531 77.125 87.144531 77.09375 87.132812 77.0625 C 87.144531 77.09375 87.144531 77.125 87.144531 77.152344 Z M 87.164062 77.371094 C 87.164062 77.332031 87.164062 77.304688 87.152344 77.261719 C 87.164062 77.304688 87.164062 77.332031 87.164062 77.371094 Z M 87.171875 77.582031 C 87.171875 77.542969 87.171875 77.511719 87.171875 77.472656 C 87.171875 77.511719 87.171875 77.542969 87.171875 77.582031 Z M 87.183594 77.792969 C 87.183594 77.753906 87.183594 77.722656 87.183594 77.691406 C 87.183594 77.722656 87.183594 77.753906 87.183594 77.792969 Z M 87.183594 78.003906 C 87.183594 77.972656 87.183594 77.933594 87.183594 77.902344 C 87.183594 77.933594 87.183594 77.972656 87.183594 78.003906 Z M 87.171875 78.222656 C 87.171875 78.183594 87.171875 78.152344 87.171875 78.113281 C 87.171875 78.152344 87.171875 78.183594 87.171875 78.222656 Z M 87.152344 78.433594 C 87.152344 78.402344 87.164062 78.363281 87.164062 78.332031 C 87.164062 78.363281 87.152344 78.402344 87.152344 78.433594 Z M 87.132812 78.640625 C 87.132812 78.613281 87.144531 78.582031 87.144531 78.550781 C 87.144531 78.582031 87.132812 78.613281 87.132812 78.640625 Z M 87.101562 78.863281 C 87.101562 78.832031 87.113281 78.800781 87.113281 78.773438 C 87.113281 78.800781 87.101562 78.832031 87.101562 78.863281 Z M 87.0625 79.082031 C 87.074219 79.050781 87.074219 79.023438 87.082031 78.992188 C 87.074219 79.023438 87.074219 79.050781 87.0625 79.082031 Z M 87.023438 79.300781 C 87.023438 79.273438 87.035156 79.242188 87.042969 79.210938 C 87.035156 79.242188 87.023438 79.273438 87.023438 79.300781 Z M 86.964844 79.523438 C 86.972656 79.492188 86.984375 79.460938 86.992188 79.433594 C 86.984375 79.460938 86.972656 79.492188 86.964844 79.523438 Z M 86.902344 79.742188 C 86.914062 79.710938 86.921875 79.691406 86.933594 79.660156 C 86.921875 79.691406 86.914062 79.710938 86.902344 79.742188 Z M 86.84375 79.960938 C 86.851562 79.941406 86.851562 79.921875 86.863281 79.902344 C 86.851562 79.921875 86.851562 79.941406 86.84375 79.960938 Z M 161.667969 59.792969 L 161.636719 59.921875 C 161.648438 59.882812 161.65625 59.84375 161.667969 59.792969 Z M 146.078125 69.496094 C 146.085938 69.496094 146.085938 69.496094 146.085938 69.496094 Z M 151.695312 78.292969 C 151.644531 78.351562 151.605469 78.421875 151.542969 78.492188 C 151.453125 78.632812 151.34375 78.773438 151.246094 78.921875 C 151.34375 78.773438 151.453125 78.632812 151.542969 78.492188 C 151.605469 78.421875 151.644531 78.351562 151.695312 78.292969 Z M 155.351562 81.320312 C 155.363281 81.3125 155.382812 81.300781 155.390625 81.289062 Z M 159.777344 53.546875 C 159.867188 54.507812 159.910156 55.476562 159.910156 56.457031 C 159.910156 63.691406 157.550781 70.386719 153.5625 75.792969 C 152.941406 76.601562 152.324219 77.421875 151.703125 78.28125 C 151.773438 78.183594 151.855469 78.074219 151.921875 77.972656 C 151.765625 78.300781 151.675781 78.671875 151.675781 79.070312 C 151.675781 80.460938 152.804688 81.589844 154.203125 81.589844 C 154.472656 81.589844 154.722656 81.550781 154.972656 81.46875 C 154.941406 81.480469 154.910156 81.492188 154.882812 81.5 L 154.890625 81.5 C 157.320312 80.851562 159.28125 79.050781 160.160156 76.722656 C 159.230469 84.109375 156.621094 90.976562 152.722656 96.910156 C 150.972656 99.410156 149.085938 101.75 147.207031 103.835938 C 143.699219 107.496094 139.609375 110.582031 135.09375 112.980469 C 135.085938 112.980469 135.074219 112.980469 135.0625 112.980469 C 137.082031 104.125 137.414062 93.902344 127.546875 87.636719 L 127.539062 87.636719 C 127.21875 87.335938 126.878906 87.027344 126.519531 86.726562 C 127.988281 90.613281 127.9375 96.441406 125.25 100.039062 C 124.019531 93.664062 116.773438 84.527344 118.722656 76.261719 C 113.515625 81.210938 98.125 94.203125 101.335938 109.414062 C 95.429688 107.8125 95.816406 97.429688 96.957031 91.773438 C 94.027344 94.09375 91.269531 98.980469 90.320312 105.027344 C 90.28125 104.855469 90.242188 104.675781 90.203125 104.507812 C 87.101562 97.960938 81.757812 92.671875 75.160156 89.664062 C 74.371094 89.304688 73.570312 88.976562 72.75 88.6875 C 62.417969 83.96875 55.152344 73.683594 54.804688 61.664062 C 58.210938 66.75 64.015625 70.097656 70.601562 70.097656 C 70.972656 70.097656 71.34375 70.085938 71.710938 70.066406 C 71.863281 70.058594 72.003906 70.058594 72.152344 70.058594 C 73.730469 70.058594 75.25 70.296875 76.691406 70.726562 C 76.808594 70.765625 76.929688 70.796875 77.050781 70.835938 L 77.039062 70.835938 C 81.398438 72.265625 84.90625 75.554688 86.644531 79.75 C 86.683594 79.902344 86.722656 80.042969 86.761719 80.191406 C 85.855469 75.273438 83.335938 70.917969 79.757812 67.707031 C 79.546875 67.507812 79.328125 67.320312 79.097656 67.128906 C 79.039062 67.121094 78.976562 67.097656 78.90625 67.089844 C 91.332031 69.777344 104.472656 70.027344 117.703125 67.398438 C 119.683594 67 121.632812 66.550781 123.550781 66.039062 C 127.148438 65.21875 130.457031 64.179688 133.296875 62.902344 C 135.332031 62.121094 137.332031 61.273438 139.300781 60.363281 C 137.683594 61.371094 136.601562 63.171875 136.601562 65.210938 C 136.601562 68.359375 139.160156 70.917969 142.320312 70.917969 C 142.378906 70.917969 142.441406 70.917969 142.5 70.917969 C 142.550781 70.917969 142.589844 70.90625 142.640625 70.90625 C 142.738281 70.90625 142.847656 70.898438 142.949219 70.886719 C 142.960938 70.875 142.96875 70.875 142.980469 70.875 C 144.136719 70.746094 145.199219 70.257812 146.046875 69.527344 C 145.9375 69.617188 145.835938 69.699219 145.738281 69.777344 C 151.0625 66.507812 155.382812 61.753906 158.109375 56.085938 M 158.109375 56.085938 C 158.699219 54.867188 159.210938 53.597656 159.648438 52.296875 C 159.699219 52.707031 159.75 53.128906 159.777344 53.546875 " clip-rule="nonzero"/></clipPath><clipPath id="ad18d65549"><path d="M 49.527344 112.523438 L 160.859375 122.253906 L 166.945312 52.757812 L 55.613281 43.015625 Z M 49.527344 112.523438 " clip-rule="nonzero"/></clipPath><linearGradient x1="0.249026" gradientTransform="matrix(13.288322, -151.886216, 151.886216, 13.288322, 100.023768, 154.954122)" y1="0" x2="0.705978" gradientUnits="userSpaceOnUse" y2="0" id="65fcca4086"><stop stop-opacity="1" stop-color="rgb(94.119263%, 25.099182%, 11.759949%)" offset="0"/><stop stop-opacity="1" stop-color="rgb(94.119263%, 25.285339%, 11.759949%)" offset="0.015625"/><stop stop-opacity="1" stop-color="rgb(94.119263%, 25.675964%, 11.759949%)" offset="0.0195312"/><stop stop-opacity="1" stop-color="rgb(94.119263%, 25.878906%, 11.759949%)" offset="0.0234375"/><stop stop-opacity="1" stop-color="rgb(94.119263%, 25.886536%, 11.752319%)" offset="0.03125"/><stop stop-opacity="1" stop-color="rgb(94.119263%, 26.0849%, 11.557007%)" offset="0.0390625"/><stop stop-opacity="1" stop-color="rgb(94.119263%, 26.470947%, 11.369324%)" offset="0.046875"/><stop stop-opacity="1" stop-color="rgb(94.119263%, 26.855469%, 11.369324%)" offset="0.0546875"/><stop stop-opacity="1" stop-color="rgb(94.119263%, 27.052307%, 11.369324%)" offset="0.0625"/><stop stop-opacity="1" stop-color="rgb(94.314575%, 27.253723%, 11.369324%)" offset="0.0703125"/><stop stop-opacity="1" stop-color="rgb(94.509888%, 27.453613%, 11.369324%)" offset="0.078125"/><stop stop-opacity="1" stop-color="rgb(94.509888%, 27.6474%, 11.369324%)" offset="0.0859375"/><stop stop-opacity="1" stop-color="rgb(94.509888%, 28.033447%, 11.369324%)" offset="0.09375"/><stop stop-opacity="1" stop-color="rgb(94.509888%, 28.233337%, 11.369324%)" offset="0.101562"/><stop stop-opacity="1" stop-color="rgb(94.509888%, 28.443909%, 11.174011%)" offset="0.105469"/><stop stop-opacity="1" stop-color="rgb(94.509888%, 28.649902%, 10.978699%)" offset="0.109375"/><stop stop-opacity="1" stop-color="rgb(94.509888%, 28.839111%, 10.978699%)" offset="0.117187"/><stop stop-opacity="1" stop-color="rgb(94.509888%, 29.219055%, 10.978699%)" offset="0.125"/><stop stop-opacity="1" stop-color="rgb(94.509888%, 29.595947%, 10.978699%)" offset="0.140625"/><stop stop-opacity="1" stop-color="rgb(94.509888%, 30.003357%, 10.978699%)" offset="0.144531"/><stop stop-opacity="1" stop-color="rgb(94.509888%, 30.223083%, 10.978699%)" offset="0.148437"/><stop stop-opacity="1" stop-color="rgb(94.509888%, 30.406189%, 10.978699%)" offset="0.15625"/><stop stop-opacity="1" stop-color="rgb(94.509888%, 30.781555%, 10.786438%)" offset="0.171875"/><stop stop-opacity="1" stop-color="rgb(94.509888%, 31.164551%, 10.591125%)" offset="0.179687"/><stop stop-opacity="1" stop-color="rgb(94.509888%, 31.546021%, 10.5896%)" offset="0.1875"/><stop stop-opacity="1" stop-color="rgb(94.517517%, 31.947327%, 10.5896%)" offset="0.191406"/><stop stop-opacity="1" stop-color="rgb(94.526672%, 32.159424%, 10.5896%)" offset="0.195312"/><stop stop-opacity="1" stop-color="rgb(94.71283%, 32.162476%, 10.5896%)" offset="0.203125"/><stop stop-opacity="1" stop-color="rgb(94.898987%, 32.357788%, 10.5896%)" offset="0.210937"/><stop stop-opacity="1" stop-color="rgb(94.898987%, 32.737732%, 10.5896%)" offset="0.21875"/><stop stop-opacity="1" stop-color="rgb(94.898987%, 33.119202%, 10.403442%)" offset="0.226562"/><stop stop-opacity="1" stop-color="rgb(94.898987%, 33.329773%, 10.20813%)" offset="0.234375"/><stop stop-opacity="1" stop-color="rgb(94.898987%, 33.544922%, 10.198975%)" offset="0.242187"/><stop stop-opacity="1" stop-color="rgb(94.898987%, 33.929443%, 10.198975%)" offset="0.25"/><stop stop-opacity="1" stop-color="rgb(94.898987%, 34.313965%, 10.198975%)" offset="0.265625"/><stop stop-opacity="1" stop-color="rgb(94.898987%, 34.70459%, 10.198975%)" offset="0.273437"/><stop stop-opacity="1" stop-color="rgb(94.898987%, 34.906006%, 10.198975%)" offset="0.28125"/><stop stop-opacity="1" stop-color="rgb(94.898987%, 35.10437%, 10.194397%)" offset="0.289062"/><stop stop-opacity="1" stop-color="rgb(94.898987%, 35.493469%, 9.994507%)" offset="0.296875"/><stop stop-opacity="1" stop-color="rgb(94.898987%, 35.884094%, 9.799194%)" offset="0.304687"/><stop stop-opacity="1" stop-color="rgb(94.898987%, 36.273193%, 9.799194%)" offset="0.3125"/><stop stop-opacity="1" stop-color="rgb(95.094299%, 36.663818%, 9.799194%)" offset="0.320312"/><stop stop-opacity="1" stop-color="rgb(95.289612%, 36.862183%, 9.799194%)" offset="0.328125"/><stop stop-opacity="1" stop-color="rgb(95.289612%, 37.055969%, 9.799194%)" offset="0.335937"/><stop stop-opacity="1" stop-color="rgb(95.289612%, 37.442017%, 9.799194%)" offset="0.34375"/><stop stop-opacity="1" stop-color="rgb(95.289612%, 37.828064%, 9.614563%)" offset="0.351562"/><stop stop-opacity="1" stop-color="rgb(95.289612%, 38.047791%, 9.41925%)" offset="0.359375"/><stop stop-opacity="1" stop-color="rgb(95.289612%, 38.449097%, 9.408569%)" offset="0.363281"/><stop stop-opacity="1" stop-color="rgb(95.289612%, 38.819885%, 9.408569%)" offset="0.367187"/><stop stop-opacity="1" stop-color="rgb(95.289612%, 39.019775%, 9.408569%)" offset="0.371094"/><stop stop-opacity="1" stop-color="rgb(95.289612%, 39.219666%, 9.408569%)" offset="0.375"/><stop stop-opacity="1" stop-color="rgb(95.289612%, 39.405823%, 9.408569%)" offset="0.382812"/><stop stop-opacity="1" stop-color="rgb(95.289612%, 39.778137%, 9.408569%)" offset="0.390625"/><stop stop-opacity="1" stop-color="rgb(95.289612%, 39.99176%, 9.397888%)" offset="0.398437"/><stop stop-opacity="1" stop-color="rgb(95.289612%, 40.211487%, 9.202576%)" offset="0.40625"/><stop stop-opacity="1" stop-color="rgb(95.289612%, 40.589905%, 9.01947%)" offset="0.421875"/><stop stop-opacity="1" stop-color="rgb(95.289612%, 40.971375%, 9.01947%)" offset="0.429687"/><stop stop-opacity="1" stop-color="rgb(95.489502%, 41.366577%, 9.01947%)" offset="0.433594"/><stop stop-opacity="1" stop-color="rgb(95.689392%, 41.569519%, 9.01947%)" offset="0.4375"/><stop stop-opacity="1" stop-color="rgb(95.689392%, 41.78009%, 9.01947%)" offset="0.441406"/><stop stop-opacity="1" stop-color="rgb(95.689392%, 41.990662%, 9.01947%)" offset="0.445312"/><stop stop-opacity="1" stop-color="rgb(95.689392%, 42.176819%, 8.824158%)" offset="0.453125"/><stop stop-opacity="1" stop-color="rgb(95.689392%, 42.555237%, 8.628845%)" offset="0.460937"/><stop stop-opacity="1" stop-color="rgb(95.689392%, 42.944336%, 8.628845%)" offset="0.46875"/><stop stop-opacity="1" stop-color="rgb(95.689392%, 43.333435%, 8.628845%)" offset="0.476562"/><stop stop-opacity="1" stop-color="rgb(95.689392%, 43.742371%, 8.628845%)" offset="0.480469"/><stop stop-opacity="1" stop-color="rgb(95.689392%, 43.955994%, 8.628845%)" offset="0.484375"/><stop stop-opacity="1" stop-color="rgb(95.689392%, 44.132996%, 8.628845%)" offset="0.492187"/><stop stop-opacity="1" stop-color="rgb(95.689392%, 44.509888%, 8.628845%)" offset="0.496094"/><stop stop-opacity="1" stop-color="rgb(95.689392%, 44.709778%, 8.628845%)" offset="0.5"/><stop stop-opacity="1" stop-color="rgb(95.689392%, 44.894409%, 8.442688%)" offset="0.515625"/><stop stop-opacity="1" stop-color="rgb(95.689392%, 45.285034%, 8.248901%)" offset="0.519531"/><stop stop-opacity="1" stop-color="rgb(95.689392%, 45.489502%, 8.239746%)" offset="0.523438"/><stop stop-opacity="1" stop-color="rgb(95.689392%, 45.501709%, 8.239746%)" offset="0.53125"/><stop stop-opacity="1" stop-color="rgb(95.689392%, 45.890808%, 8.239746%)" offset="0.535156"/><stop stop-opacity="1" stop-color="rgb(95.689392%, 46.269226%, 8.239746%)" offset="0.539062"/><stop stop-opacity="1" stop-color="rgb(95.689392%, 46.463013%, 8.239746%)" offset="0.546875"/><stop stop-opacity="1" stop-color="rgb(95.689392%, 46.842957%, 8.239746%)" offset="0.554688"/><stop stop-opacity="1" stop-color="rgb(95.883179%, 47.213745%, 8.06427%)" offset="0.5625"/><stop stop-opacity="1" stop-color="rgb(96.078491%, 47.619629%, 7.86438%)" offset="0.566406"/><stop stop-opacity="1" stop-color="rgb(96.078491%, 47.839355%, 7.839966%)" offset="0.570312"/><stop stop-opacity="1" stop-color="rgb(96.078491%, 48.039246%, 7.839966%)" offset="0.574219"/><stop stop-opacity="1" stop-color="rgb(96.078491%, 48.239136%, 7.839966%)" offset="0.578125"/><stop stop-opacity="1" stop-color="rgb(96.078491%, 48.434448%, 7.839966%)" offset="0.59375"/><stop stop-opacity="1" stop-color="rgb(96.078491%, 48.823547%, 7.839966%)" offset="0.601562"/><stop stop-opacity="1" stop-color="rgb(96.078491%, 49.407959%, 7.644653%)" offset="0.605469"/><stop stop-opacity="1" stop-color="rgb(96.078491%, 49.798584%, 7.449341%)" offset="0.609375"/><stop stop-opacity="1" stop-color="rgb(96.078491%, 49.998474%, 7.449341%)" offset="0.613281"/><stop stop-opacity="1" stop-color="rgb(96.078491%, 50.19989%, 7.449341%)" offset="0.617188"/><stop stop-opacity="1" stop-color="rgb(96.078491%, 50.393677%, 7.449341%)" offset="0.625"/><stop stop-opacity="1" stop-color="rgb(96.273804%, 50.773621%, 7.449341%)" offset="0.632813"/><stop stop-opacity="1" stop-color="rgb(96.469116%, 51.145935%, 7.449341%)" offset="0.640625"/><stop stop-opacity="1" stop-color="rgb(96.273804%, 51.545715%, 7.449341%)" offset="0.644531"/><stop stop-opacity="1" stop-color="rgb(96.078491%, 51.759338%, 7.449341%)" offset="0.648438"/><stop stop-opacity="1" stop-color="rgb(96.078491%, 51.959229%, 7.254028%)" offset="0.652344"/><stop stop-opacity="1" stop-color="rgb(96.078491%, 52.159119%, 7.058716%)" offset="0.65625"/><stop stop-opacity="1" stop-color="rgb(96.078491%, 52.354431%, 7.058716%)" offset="0.664063"/><stop stop-opacity="1" stop-color="rgb(96.078491%, 52.737427%, 7.058716%)" offset="0.671875"/><stop stop-opacity="1" stop-color="rgb(96.078491%, 53.111267%, 7.058716%)" offset="0.679688"/><stop stop-opacity="1" stop-color="rgb(96.078491%, 53.486633%, 7.058716%)" offset="0.6875"/><stop stop-opacity="1" stop-color="rgb(96.078491%, 53.717041%, 7.058716%)" offset="0.695313"/><stop stop-opacity="1" stop-color="rgb(96.078491%, 53.941345%, 7.058716%)" offset="0.703125"/><stop stop-opacity="1" stop-color="rgb(96.078491%, 54.315186%, 7.058716%)" offset="0.710938"/><stop stop-opacity="1" stop-color="rgb(96.266174%, 54.695129%, 6.869507%)" offset="0.71875"/><stop stop-opacity="1" stop-color="rgb(96.461487%, 54.891968%, 6.67572%)" offset="0.726563"/><stop stop-opacity="1" stop-color="rgb(96.469116%, 55.102539%, 6.669617%)" offset="0.730469"/><stop stop-opacity="1" stop-color="rgb(96.469116%, 55.307007%, 6.669617%)" offset="0.734375"/><stop stop-opacity="1" stop-color="rgb(96.469116%, 55.505371%, 6.669617%)" offset="0.738281"/><stop stop-opacity="1" stop-color="rgb(96.469116%, 55.705261%, 6.669617%)" offset="0.742188"/><stop stop-opacity="1" stop-color="rgb(96.469116%, 55.891418%, 6.669617%)" offset="0.75"/><stop stop-opacity="1" stop-color="rgb(96.284485%, 56.274414%, 6.669617%)" offset="0.757813"/><stop stop-opacity="1" stop-color="rgb(96.089172%, 56.663513%, 6.669617%)" offset="0.765625"/><stop stop-opacity="1" stop-color="rgb(96.078491%, 57.054138%, 6.648254%)" offset="0.773438"/><stop stop-opacity="1" stop-color="rgb(96.078491%, 57.449341%, 6.448364%)" offset="0.777344"/><stop stop-opacity="1" stop-color="rgb(96.078491%, 57.649231%, 6.269836%)" offset="0.78125"/><stop stop-opacity="1" stop-color="rgb(96.078491%, 57.844543%, 6.269836%)" offset="0.789063"/><stop stop-opacity="1" stop-color="rgb(96.078491%, 58.226013%, 6.269836%)" offset="0.796875"/><stop stop-opacity="1" stop-color="rgb(96.257019%, 58.599854%, 6.269836%)" offset="0.804688"/><stop stop-opacity="1" stop-color="rgb(96.452332%, 58.97522%, 6.269836%)" offset="0.8125"/><stop stop-opacity="1" stop-color="rgb(96.469116%, 59.387207%, 6.269836%)" offset="0.816406"/><stop stop-opacity="1" stop-color="rgb(96.469116%, 59.609985%, 6.269836%)" offset="0.820313"/><stop stop-opacity="1" stop-color="rgb(96.469116%, 59.803772%, 6.074524%)" offset="0.828125"/><stop stop-opacity="1" stop-color="rgb(96.469116%, 60.194397%, 5.879211%)" offset="0.84375"/><stop stop-opacity="1" stop-color="rgb(96.469116%, 60.572815%, 5.879211%)" offset="0.851563"/><stop stop-opacity="1" stop-color="rgb(96.469116%, 60.966492%, 5.879211%)" offset="0.855469"/><stop stop-opacity="1" stop-color="rgb(96.469116%, 61.178589%, 5.879211%)" offset="0.859375"/><stop stop-opacity="1" stop-color="rgb(96.469116%, 61.372375%, 5.879211%)" offset="0.875"/><stop stop-opacity="1" stop-color="rgb(96.469116%, 61.763%, 5.879211%)" offset="0.878906"/><stop stop-opacity="1" stop-color="rgb(96.469116%, 61.959839%, 5.879211%)" offset="0.882813"/><stop stop-opacity="1" stop-color="rgb(96.469116%, 62.153625%, 5.683899%)" offset="0.890625"/><stop stop-opacity="1" stop-color="rgb(96.469116%, 62.568665%, 5.488586%)" offset="0.894531"/><stop stop-opacity="1" stop-color="rgb(96.469116%, 62.788391%, 5.488586%)" offset="0.898438"/><stop stop-opacity="1" stop-color="rgb(96.469116%, 62.963867%, 5.488586%)" offset="0.90625"/><stop stop-opacity="1" stop-color="rgb(96.469116%, 63.334656%, 5.488586%)" offset="0.921875"/><stop stop-opacity="1" stop-color="rgb(96.469116%, 63.716125%, 5.488586%)" offset="0.929688"/><stop stop-opacity="1" stop-color="rgb(96.469116%, 64.091492%, 5.488586%)" offset="0.9375"/><stop stop-opacity="1" stop-color="rgb(96.469116%, 64.49585%, 5.488586%)" offset="0.941406"/><stop stop-opacity="1" stop-color="rgb(96.469116%, 64.709473%, 5.488586%)" offset="0.945312"/><stop stop-opacity="1" stop-color="rgb(96.469116%, 64.903259%, 5.293274%)" offset="0.953125"/><stop stop-opacity="1" stop-color="rgb(96.469116%, 65.287781%, 5.099487%)" offset="0.960938"/><stop stop-opacity="1" stop-color="rgb(96.469116%, 65.664673%, 5.099487%)" offset="0.96875"/><stop stop-opacity="1" stop-color="rgb(96.273804%, 65.864563%, 5.099487%)" offset="0.976562"/><stop stop-opacity="1" stop-color="rgb(96.078491%, 66.090393%, 5.099487%)" offset="0.980469"/><stop stop-opacity="1" stop-color="rgb(96.078491%, 66.30249%, 5.099487%)" offset="0.984375"/><stop stop-opacity="1" stop-color="rgb(96.078491%, 66.491699%, 5.099487%)" offset="0.992188"/><stop stop-opacity="1" stop-color="rgb(96.078491%, 66.870117%, 5.099487%)" offset="1"/></linearGradient><clipPath id="1d76e08637"><rect x="0" width="125" y="0" height="63"/></clipPath><clipPath id="38c64ae6b4"><rect x="0" width="53" y="0" height="14"/></clipPath><clipPath id="096a8eca1b"><rect x="0" width="36" y="0" height="14"/></clipPath></defs><path fill="#3a3a3c" d="M 45.378906 44.28125 C 37.753906 23.144531 152.882812 2.75 168.113281 11.511719 L 123.730469 33.871094 L 122.792969 32.761719 L 121.851562 31.640625 C 121.78125 31.5625 121.722656 31.472656 121.652344 31.390625 L 121.601562 31.359375 C 121.613281 31.371094 121.632812 31.382812 121.652344 31.390625 C 120.382812 29.890625 118.984375 30.171875 117.824219 30.75 L 117.816406 30.75 C 117.394531 30.960938 117.003906 31.210938 116.664062 31.421875 L 93.75 44.992188 L 80.335938 52.648438 L 45.378906 44.28125 " fill-opacity="1" fill-rule="evenodd"/><path fill="#ac0b14" d="M 114.886719 64.742188 C 141.820312 59.382812 162.738281 40.753906 172.203125 17 C 153.28125 29.140625 131.824219 38.015625 108.449219 42.664062 C 87.054688 46.921875 65.785156 47.300781 45.378906 44.28125 C 63.167969 61.453125 88.800781 69.925781 114.886719 64.742188 " fill-opacity="1" fill-rule="evenodd"/><path fill="#3a3a3c" d="M 45.378906 44.28125 L 2.542969 8.863281 L 8.96875 1.089844 L 49.6875 34.738281 L 58.128906 37.546875 L 45.378906 44.28125 " fill-opacity="1" fill-rule="evenodd"/><g clip-path="url(#2c3ccefa14)"><path fill="#3a3a3c" d="M 5.761719 9.953125 C 8.492188 9.953125 10.730469 7.714844 10.730469 4.976562 C 10.730469 2.238281 8.492188 0.0117188 5.761719 0.0117188 C 3.023438 0.0117188 0.785156 2.238281 0.785156 4.976562 C 0.785156 7.714844 3.023438 9.953125 5.761719 9.953125 " fill-opacity="1" fill-rule="evenodd"/></g><path fill="#ffffff" d="M 87.453125 33.949219 L 85.144531 35.628906 C 84.703125 35.957031 84.40625 36.269531 84.09375 36.738281 L 82.535156 39.117188 C 81.6875 40.425781 81.636719 40.375 82.894531 39.457031 L 85.195312 37.777344 C 85.644531 37.457031 85.945312 37.136719 86.242188 36.675781 L 87.804688 34.289062 C 88.664062 32.988281 88.710938 33.039062 87.453125 33.949219 " fill-opacity="1" fill-rule="evenodd"/><path fill="#ffffff" d="M 74.371094 27.824219 L 74.441406 31.070312 C 74.449219 31.699219 74.550781 32.179688 74.789062 32.769531 L 76 35.777344 C 76.660156 37.425781 76.589844 37.4375 76.550781 35.667969 L 76.480469 32.421875 C 76.46875 31.789062 76.371094 31.3125 76.128906 30.722656 L 74.921875 27.703125 C 74.261719 26.0625 74.339844 26.042969 74.371094 27.824219 " fill-opacity="1" fill-rule="evenodd"/><path fill="#ffffff" d="M 78.886719 27.582031 L 81.246094 29.183594 C 81.707031 29.492188 82.105469 29.660156 82.636719 29.792969 L 85.414062 30.453125 C 86.933594 30.8125 86.902344 30.871094 85.613281 30 L 83.246094 28.402344 C 82.785156 28.09375 82.394531 27.921875 81.855469 27.792969 L 79.078125 27.132812 C 77.570312 26.773438 77.597656 26.714844 78.886719 27.582031 " fill-opacity="1" fill-rule="evenodd"/><path fill="#ffffff" d="M 70.804688 42.15625 L 72.730469 42.09375 C 73.113281 42.085938 73.402344 42.023438 73.742188 41.875 L 75.53125 41.136719 C 76.507812 40.734375 76.519531 40.785156 75.460938 40.816406 L 73.53125 40.875 C 73.152344 40.886719 72.871094 40.945312 72.523438 41.09375 L 70.734375 41.824219 C 69.765625 42.234375 69.753906 42.183594 70.804688 42.15625 " fill-opacity="1" fill-rule="evenodd"/><path fill="#ffffff" d="M 61.558594 37.027344 L 62.648438 34.390625 C 62.859375 33.878906 62.949219 33.460938 62.957031 32.898438 L 63.039062 30.050781 C 63.085938 28.503906 63.15625 28.511719 62.566406 29.953125 L 61.480469 32.589844 C 61.269531 33.101562 61.179688 33.53125 61.160156 34.078125 L 61.089844 36.925781 C 61.039062 38.488281 60.96875 38.476562 61.558594 37.027344 " fill-opacity="1" fill-rule="evenodd"/><path fill="#ffffff" d="M 69.722656 39.464844 L 69.273438 37.585938 C 69.183594 37.226562 69.0625 36.957031 68.855469 36.648438 L 67.765625 35.046875 C 67.175781 34.179688 67.214844 34.160156 67.464844 35.179688 L 67.914062 37.058594 C 68.003906 37.425781 68.125 37.695312 68.335938 38.007812 L 69.414062 39.605469 C 70.003906 40.476562 69.964844 40.496094 69.722656 39.464844 " fill-opacity="1" fill-rule="evenodd"/><path fill="#3a3a3c" d="M 63.085938 14.582031 L 65.40625 16.238281 C 65.855469 16.558594 66.246094 16.738281 66.785156 16.878906 L 69.535156 17.609375 C 71.042969 18.007812 71.011719 18.078125 69.742188 17.167969 L 67.425781 15.511719 C 66.976562 15.191406 66.585938 15.011719 66.046875 14.871094 L 63.289062 14.140625 C 61.789062 13.742188 61.820312 13.671875 63.085938 14.582031 " fill-opacity="1" fill-rule="evenodd"/><path fill="#3a3a3c" d="M 57.75 30.703125 L 59.917969 28.851562 C 60.339844 28.492188 60.621094 28.164062 60.878906 27.671875 L 62.257812 25.183594 C 63.019531 23.816406 63.066406 23.867188 61.886719 24.875 L 59.710938 26.714844 C 59.289062 27.074219 59.011719 27.414062 58.75 27.894531 L 57.371094 30.390625 C 56.613281 31.75 56.5625 31.710938 57.75 30.703125 " fill-opacity="1" fill-rule="evenodd"/><path fill="#3a3a3c" d="M 57.121094 24.945312 L 56.871094 22.105469 C 56.820312 21.558594 56.710938 21.136719 56.472656 20.636719 L 55.222656 18.078125 C 54.542969 16.667969 54.613281 16.660156 54.753906 18.207031 L 55.011719 21.046875 C 55.050781 21.597656 55.171875 22.015625 55.414062 22.515625 L 56.652344 25.074219 C 57.332031 26.484375 57.261719 26.503906 57.121094 24.945312 " fill-opacity="1" fill-rule="evenodd"/><path fill="#ffffff" d="M 113.46875 60.511719 C 113.65625 60.484375 113.847656 60.441406 114.035156 60.402344 C 126.519531 57.925781 137.621094 52.429688 146.746094 44.832031 C 152.402344 40.125 157.300781 34.609375 161.289062 28.492188 C 155.472656 31.589844 149.445312 34.398438 143.238281 36.898438 C 139.652344 38.347656 135.992188 39.6875 132.285156 40.914062 C 132.386719 43.972656 127.007812 53.386719 113.46875 60.511719 " fill-opacity="1" fill-rule="evenodd"/><g clip-path="url(#8d12736a2c)"><g clip-path="url(#ddee18a8a5)"><g clip-path="url(#ad18d65549)"><path fill="url(#65fcca4086)" d="M 49.542969 112.425781 L 160.855469 122.164062 L 166.929688 52.757812 L 55.613281 43.019531 Z M 49.542969 112.425781 " fill-rule="nonzero"/></g></g></g><path fill="#3a3a3c" d="M 112.007812 37.328125 L 103.871094 41.835938 C 105.292969 41.59375 106.710938 41.324219 108.128906 41.046875 C 110.089844 40.65625 112.039062 40.234375 113.976562 39.785156 L 112.007812 37.328125 " fill-opacity="1" fill-rule="evenodd"/><path fill="#3a3a3c" d="M 79.179688 22.375 L 77.917969 20.917969 C 77.667969 20.636719 77.4375 20.449219 77.109375 20.277344 L 75.410156 19.359375 C 74.480469 18.847656 74.511719 18.820312 75.199219 19.609375 L 76.46875 21.078125 C 76.710938 21.355469 76.9375 21.535156 77.269531 21.714844 L 78.96875 22.636719 C 79.898438 23.136719 79.867188 23.175781 79.179688 22.375 " fill-opacity="1" fill-rule="evenodd"/><path fill="#ffffff" d="M 71.753906 22.777344 L 69.664062 25.503906 C 69.265625 26.035156 69.023438 26.503906 68.835938 27.144531 L 67.84375 30.429688 C 67.304688 32.230469 67.226562 32.191406 68.363281 30.703125 L 70.453125 27.972656 C 70.863281 27.441406 71.09375 26.972656 71.292969 26.335938 L 72.273438 23.046875 C 72.8125 21.246094 72.890625 21.285156 71.753906 22.777344 " fill-opacity="1" fill-rule="evenodd"/><g transform="matrix(1, 0, 0, 1, 44, 71)"><g clip-path="url(#1d76e08637)"><g fill="#ffffff" fill-opacity="1"><g transform="translate(2.428843, 47.828673)"><g><path d="M 16.78125 -36.816406 C 18.792969 -36.816406 20.707031 -36.59375 22.53125 -36.148438 C 24.46875 -35.632812 26.167969 -34.855469 27.632812 -33.824219 C 29.183594 -32.683594 30.40625 -31.238281 31.300781 -29.496094 L 31.316406 -29.46875 L 31.332031 -29.4375 C 32.179688 -27.652344 32.578125 -25.542969 32.539062 -23.105469 C 32.496094 -20.980469 32.15625 -19.0625 31.515625 -17.359375 C 30.765625 -15.480469 29.453125 -13.828125 27.585938 -12.40625 L 27.566406 -12.390625 L 26.945312 -11.9375 L 25.613281 -13.765625 L 27.582031 -14.878906 L 34.421875 -2.792969 L 20.105469 4.09375 L 12.300781 -11.203125 L 14.316406 -12.230469 L 14.539062 -9.980469 L 13.992188 -9.925781 L 13.765625 -12.175781 L 16.027344 -12.164062 L 15.964844 2.261719 L 0.261719 2.261719 L 0.261719 -36.816406 Z M 16.78125 -32.289062 L 2.523438 -32.289062 L 2.523438 -34.554688 L 4.785156 -34.554688 L 4.785156 0 L 2.523438 0 L 2.523438 -2.261719 L 13.710938 -2.261719 L 13.710938 0 L 11.449219 -0.0117188 L 11.511719 -14.222656 L 15.628906 -14.636719 L 23.132812 0.0703125 L 21.117188 1.097656 L 20.136719 -0.941406 L 30.28125 -5.824219 L 31.261719 -3.785156 L 29.292969 -2.671875 L 22.648438 -14.410156 L 24.886719 -16.035156 L 26.214844 -14.207031 L 24.84375 -16.003906 C 26.050781 -16.921875 26.859375 -17.902344 27.277344 -18.949219 C 27.738281 -20.167969 27.980469 -21.582031 28.011719 -23.183594 C 28.042969 -24.914062 27.785156 -26.351562 27.242188 -27.496094 L 29.289062 -28.464844 L 27.273438 -27.433594 C 26.707031 -28.542969 25.953125 -29.441406 25.019531 -30.125 C 24 -30.847656 22.808594 -31.390625 21.457031 -31.75 C 19.988281 -32.109375 18.429688 -32.289062 16.78125 -32.289062 Z M 15.972656 -25.285156 L 15.972656 -18.867188 L 13.710938 -18.867188 L 13.710938 -21.128906 L 14.371094 -21.128906 C 14.832031 -21.128906 15.3125 -21.144531 15.808594 -21.179688 C 16.089844 -21.199219 16.363281 -21.261719 16.628906 -21.363281 L 16.675781 -21.382812 L 16.726562 -21.398438 C 16.84375 -21.4375 16.964844 -21.535156 17.089844 -21.691406 L 17.113281 -21.722656 L 17.140625 -21.753906 C 17.144531 -21.761719 17.152344 -21.777344 17.160156 -21.808594 C 17.191406 -21.90625 17.207031 -22.042969 17.207031 -22.210938 L 17.207031 -22.265625 L 17.210938 -22.316406 C 17.21875 -22.488281 17.210938 -22.617188 17.1875 -22.703125 L 17.191406 -22.703125 C 17.203125 -22.679688 17.21875 -22.652344 17.238281 -22.628906 L 18.976562 -24.078125 L 17.375 -22.476562 C 17.214844 -22.640625 17.035156 -22.753906 16.84375 -22.824219 L 16.765625 -22.855469 C 16.605469 -22.917969 16.433594 -22.960938 16.25 -22.976562 C 15.914062 -23.007812 15.582031 -23.023438 15.246094 -23.023438 L 13.710938 -23.023438 L 13.710938 -25.285156 Z M 11.449219 -27.546875 L 15.246094 -27.546875 C 15.71875 -27.546875 16.1875 -27.523438 16.660156 -27.484375 C 17.28125 -27.425781 17.875 -27.285156 18.445312 -27.054688 L 17.605469 -24.953125 L 18.367188 -27.085938 C 19.199219 -26.789062 19.933594 -26.320312 20.578125 -25.675781 L 20.648438 -25.605469 L 20.714844 -25.527344 C 21.457031 -24.636719 21.792969 -23.5 21.730469 -22.109375 L 19.46875 -22.210938 L 21.734375 -22.210938 C 21.734375 -20.855469 21.351562 -19.730469 20.59375 -18.832031 L 18.867188 -20.292969 L 20.644531 -18.894531 C 19.964844 -18.027344 19.132812 -17.429688 18.15625 -17.105469 L 17.441406 -19.25 L 18.253906 -17.140625 C 17.566406 -16.875 16.855469 -16.71875 16.109375 -16.664062 C 15.511719 -16.625 14.933594 -16.605469 14.371094 -16.605469 L 11.449219 -16.605469 Z M 11.449219 -27.546875 "/></g></g></g><g fill="#ffffff" fill-opacity="1"><g transform="translate(31.550808, 47.828673)"><g><path d="M 14.191406 -16.671875 C 14.191406 -17.238281 14.160156 -17.765625 14.097656 -18.257812 C 14.066406 -18.492188 14 -18.699219 13.894531 -18.878906 L 15.851562 -20.019531 L 13.941406 -18.804688 C 13.882812 -18.898438 13.792969 -18.980469 13.667969 -19.050781 L 14.808594 -21.007812 L 13.734375 -19.015625 C 13.59375 -19.089844 13.332031 -19.128906 12.945312 -19.128906 C 12.507812 -19.128906 12.101562 -19.0625 11.722656 -18.925781 C 11.328125 -18.789062 10.988281 -18.609375 10.703125 -18.390625 L 10.640625 -18.34375 C 10.230469 -18.050781 9.867188 -17.746094 9.550781 -17.433594 L 7.953125 -19.03125 L 9.621094 -17.503906 C 9.296875 -17.148438 9.019531 -16.800781 8.792969 -16.460938 L 7.027344 -13.8125 L -0.460938 -23.703125 L 0.78125 -25.09375 C 1.46875 -25.863281 2.234375 -26.609375 3.078125 -27.332031 L 4.550781 -25.613281 L 3.039062 -27.292969 C 3.90625 -28.074219 4.890625 -28.761719 6.003906 -29.359375 C 7.101562 -29.949219 8.3125 -30.433594 9.644531 -30.808594 L 9.707031 -30.824219 C 11.058594 -31.164062 12.558594 -31.332031 14.207031 -31.332031 C 16.851562 -31.332031 19.09375 -31.039062 20.925781 -30.457031 L 20.953125 -30.445312 L 20.984375 -30.4375 C 22.933594 -29.757812 24.519531 -28.714844 25.730469 -27.3125 C 26.925781 -25.9375 27.765625 -24.230469 28.253906 -22.191406 C 28.660156 -20.320312 28.863281 -18.152344 28.863281 -15.6875 L 28.863281 2.261719 L 15.484375 2.261719 L 14.566406 -2.234375 L 16.78125 -2.6875 L 18.554688 -1.28125 C 17.480469 0.0742188 16.21875 1.066406 14.777344 1.691406 C 13.390625 2.292969 11.957031 2.589844 10.476562 2.589844 C 9.035156 2.589844 7.695312 2.363281 6.453125 1.902344 C 5.109375 1.421875 3.914062 0.632812 2.863281 -0.464844 C 0.808594 -2.65625 -0.148438 -5.386719 -0.0117188 -8.648438 L -0.0117188 -8.675781 L -0.0078125 -8.703125 C 0.21875 -12.175781 1.488281 -14.777344 3.796875 -16.507812 C 5.921875 -18.089844 8.550781 -18.882812 11.683594 -18.882812 C 12.621094 -18.882812 13.5625 -18.796875 14.5 -18.625 C 15.371094 -18.460938 16.25 -18.234375 17.140625 -17.953125 L 16.453125 -15.796875 L 14.191406 -15.796875 Z M 18.714844 -16.671875 L 18.714844 -12.703125 L 15.769531 -13.640625 C 15.050781 -13.867188 14.355469 -14.046875 13.691406 -14.171875 C 13.019531 -14.292969 12.351562 -14.355469 11.683594 -14.355469 C 9.550781 -14.355469 7.828125 -13.867188 6.511719 -12.890625 C 5.3125 -11.988281 4.644531 -10.496094 4.507812 -8.40625 L 2.25 -8.554688 L 4.507812 -8.460938 C 4.425781 -6.460938 4.96875 -4.839844 6.132812 -3.59375 C 6.691406 -3.011719 7.320312 -2.59375 8.027344 -2.339844 C 8.757812 -2.070312 9.574219 -1.933594 10.476562 -1.933594 C 11.332031 -1.933594 12.167969 -2.109375 12.976562 -2.460938 C 13.726562 -2.785156 14.402344 -3.328125 15.011719 -4.09375 L 18.027344 -7.898438 L 19.546875 -0.453125 L 17.332031 0 L 17.332031 -2.261719 L 26.601562 -2.261719 L 26.601562 0 L 24.335938 0 L 24.335938 -15.6875 C 24.335938 -17.828125 24.175781 -19.644531 23.851562 -21.136719 C 23.535156 -22.460938 23.023438 -23.53125 22.3125 -24.351562 C 21.625 -25.144531 20.6875 -25.75 19.492188 -26.164062 L 20.238281 -28.300781 L 19.550781 -26.144531 C 18.167969 -26.585938 16.382812 -26.804688 14.207031 -26.804688 C 12.929688 -26.804688 11.792969 -26.683594 10.804688 -26.433594 L 10.257812 -28.628906 L 10.867188 -26.453125 C 9.859375 -26.167969 8.953125 -25.808594 8.148438 -25.375 C 7.355469 -24.949219 6.664062 -24.46875 6.066406 -23.929688 L 6.046875 -23.914062 L 6.023438 -23.894531 C 5.332031 -23.300781 4.710938 -22.695312 4.152344 -22.074219 L 2.46875 -23.582031 L 4.273438 -24.949219 L 8.714844 -19.082031 L 6.910156 -17.714844 L 5.027344 -18.96875 C 5.386719 -19.507812 5.804688 -20.035156 6.285156 -20.558594 L 6.316406 -20.597656 L 6.351562 -20.632812 C 6.84375 -21.121094 7.394531 -21.585938 8.007812 -22.023438 L 9.324219 -20.183594 L 7.945312 -21.976562 C 8.609375 -22.488281 9.367188 -22.894531 10.214844 -23.195312 C 11.082031 -23.5 11.992188 -23.652344 12.945312 -23.652344 C 14.09375 -23.652344 15.070312 -23.433594 15.882812 -23 L 15.914062 -22.980469 L 15.949219 -22.960938 C 16.703125 -22.519531 17.308594 -21.945312 17.757812 -21.234375 L 17.78125 -21.195312 L 17.804688 -21.160156 C 18.214844 -20.460938 18.472656 -19.679688 18.589844 -18.820312 C 18.675781 -18.140625 18.714844 -17.425781 18.714844 -16.671875 Z M 15.503906 -8.3125 C 15.332031 -8.390625 15.042969 -8.433594 14.644531 -8.433594 C 14.246094 -8.433594 13.925781 -8.375 13.679688 -8.261719 L 13.632812 -8.238281 C 13.714844 -8.273438 13.800781 -8.355469 13.894531 -8.488281 C 14.039062 -8.683594 14.109375 -8.886719 14.109375 -9.105469 C 14.109375 -9.210938 14.070312 -9.328125 13.992188 -9.460938 C 13.914062 -9.589844 13.828125 -9.679688 13.734375 -9.730469 L 13.816406 -9.6875 L 13.894531 -9.636719 C 14.03125 -9.546875 14.210938 -9.503906 14.425781 -9.503906 C 14.742188 -9.503906 14.953125 -9.542969 15.054688 -9.621094 L 16.453125 -7.84375 L 14.191406 -7.84375 L 14.191406 -10.367188 L 16.453125 -10.367188 Z M 18.714844 -11.8125 L 18.714844 -6.742188 L 17.851562 -6.0625 C 16.929688 -5.339844 15.789062 -4.976562 14.425781 -4.976562 C 13.324219 -4.976562 12.332031 -5.261719 11.445312 -5.832031 L 12.667969 -7.734375 L 11.605469 -5.738281 C 10.960938 -6.078125 10.464844 -6.542969 10.113281 -7.132812 C 9.761719 -7.71875 9.585938 -8.375 9.585938 -9.105469 C 9.585938 -9.871094 9.800781 -10.550781 10.238281 -11.148438 C 10.625 -11.679688 11.148438 -12.09375 11.816406 -12.382812 L 12.722656 -10.3125 L 11.765625 -12.363281 C 12.621094 -12.757812 13.578125 -12.957031 14.644531 -12.957031 C 15.707031 -12.957031 16.625 -12.777344 17.402344 -12.421875 Z M 18.714844 -11.8125 "/></g></g></g><g fill="#ffffff" fill-opacity="1"><g transform="translate(57.656347, 47.828673)"><g><path d="M 12.449219 2.261719 L 0.0390625 2.261719 L 0.0390625 -30.945312 L 14.710938 -30.945312 L 14.710938 2.261719 Z M 12.449219 -2.261719 L 12.449219 0 L 10.1875 0 L 10.1875 -28.683594 L 12.449219 -28.683594 L 12.449219 -26.421875 L 2.304688 -26.421875 L 2.304688 -28.683594 L 4.566406 -28.683594 L 4.566406 0 L 2.304688 0 L 2.304688 -2.261719 Z M 7.347656 -45.921875 C 8.277344 -45.921875 9.179688 -45.804688 10.0625 -45.570312 L 10.203125 -45.53125 C 11.117188 -45.226562 11.953125 -44.769531 12.710938 -44.164062 L 12.742188 -44.140625 L 12.769531 -44.113281 C 13.488281 -43.5 14.09375 -42.746094 14.59375 -41.847656 L 14.617188 -41.804688 L 14.636719 -41.761719 C 15.113281 -40.8125 15.375 -39.722656 15.421875 -38.484375 C 15.472656 -37.0625 15.261719 -35.828125 14.789062 -34.777344 C 14.332031 -33.714844 13.699219 -32.832031 12.890625 -32.128906 C 12.0625 -31.40625 11.128906 -30.890625 10.082031 -30.574219 C 9.09375 -30.292969 8.109375 -30.152344 7.128906 -30.152344 L 7.023438 -30.152344 C 5.988281 -30.203125 5 -30.425781 4.058594 -30.824219 L 4.9375 -32.90625 L 4.1875 -30.773438 C 3.132812 -31.140625 2.226562 -31.703125 1.472656 -32.460938 L 3.070312 -34.058594 L 1.527344 -32.40625 C 0.699219 -33.179688 0.09375 -34.132812 -0.28125 -35.261719 L 1.863281 -35.980469 L -0.25 -35.171875 C -0.671875 -36.28125 -0.808594 -37.523438 -0.660156 -38.90625 L 1.589844 -38.667969 L -0.664062 -38.855469 C -0.5625 -40.074219 -0.242188 -41.144531 0.296875 -42.0625 L 2.25 -40.914062 L 0.25 -41.972656 C 0.738281 -42.902344 1.398438 -43.667969 2.226562 -44.273438 L 3.566406 -42.449219 L 2.167969 -44.230469 C 2.886719 -44.792969 3.699219 -45.226562 4.605469 -45.53125 L 4.714844 -45.5625 C 5.570312 -45.800781 6.449219 -45.921875 7.347656 -45.921875 Z M 7.347656 -41.394531 C 6.859375 -41.394531 6.386719 -41.332031 5.925781 -41.203125 L 5.320312 -43.382812 L 6.035156 -41.238281 C 5.625 -41.101562 5.269531 -40.910156 4.960938 -40.671875 L 4.933594 -40.648438 L 4.902344 -40.625 C 4.632812 -40.429688 4.414062 -40.171875 4.25 -39.855469 L 4.222656 -39.8125 L 4.199219 -39.769531 C 4.007812 -39.441406 3.890625 -39.011719 3.84375 -38.480469 L 3.84375 -38.453125 L 3.839844 -38.425781 C 3.769531 -37.761719 3.816406 -37.214844 3.980469 -36.785156 L 3.996094 -36.738281 L 4.011719 -36.695312 C 4.144531 -36.289062 4.347656 -35.964844 4.613281 -35.714844 L 4.644531 -35.6875 L 4.671875 -35.660156 C 4.941406 -35.390625 5.277344 -35.183594 5.683594 -35.042969 L 5.75 -35.019531 L 5.8125 -34.992188 C 6.261719 -34.804688 6.738281 -34.699219 7.238281 -34.675781 L 7.128906 -32.414062 L 7.128906 -34.675781 C 7.6875 -34.675781 8.238281 -34.753906 8.785156 -34.910156 C 9.199219 -35.035156 9.582031 -35.25 9.925781 -35.550781 C 10.210938 -35.796875 10.457031 -36.160156 10.660156 -36.632812 C 10.847656 -37.042969 10.925781 -37.601562 10.902344 -38.300781 C 10.878906 -38.890625 10.773438 -39.371094 10.589844 -39.738281 L 12.613281 -40.75 L 10.636719 -39.652344 C 10.402344 -40.074219 10.132812 -40.414062 9.824219 -40.679688 L 11.296875 -42.394531 L 9.886719 -40.628906 C 9.546875 -40.898438 9.175781 -41.101562 8.773438 -41.238281 L 9.488281 -43.382812 L 8.914062 -41.195312 C 8.40625 -41.328125 7.886719 -41.394531 7.347656 -41.394531 Z M 7.347656 -41.394531 "/></g></g></g><g fill="#ffffff" fill-opacity="1"><g transform="translate(69.447599, 47.828673)"><g><path d="M 14.09375 -19.402344 C 13.878906 -19.402344 13.625 -19.386719 13.332031 -19.359375 C 13.121094 -19.339844 12.960938 -19.308594 12.859375 -19.269531 L 12.066406 -21.390625 L 13.078125 -19.367188 C 13.0625 -19.359375 13.050781 -19.351562 13.046875 -19.351562 C 13.0625 -19.359375 13.074219 -19.375 13.089844 -19.394531 C 13.285156 -19.617188 13.363281 -19.890625 13.328125 -20.214844 L 13.339844 -20.089844 L 13.339844 -19.964844 C 13.339844 -20.164062 13.28125 -20.359375 13.15625 -20.554688 C 13.042969 -20.738281 12.90625 -20.867188 12.75 -20.945312 L 12.820312 -20.90625 C 13.105469 -20.753906 13.457031 -20.605469 13.878906 -20.464844 L 19.375 -18.597656 C 20.734375 -18.128906 21.960938 -17.644531 23.054688 -17.136719 L 23.101562 -17.113281 L 23.144531 -17.089844 C 24.390625 -16.445312 25.441406 -15.625 26.289062 -14.636719 C 27.050781 -13.71875 27.605469 -12.671875 27.949219 -11.492188 L 27.960938 -11.449219 L 27.972656 -11.410156 C 28.253906 -10.285156 28.347656 -9.179688 28.25 -8.085938 C 28.117188 -6.152344 27.578125 -4.457031 26.636719 -2.996094 C 25.71875 -1.574219 24.546875 -0.425781 23.121094 0.449219 L 21.9375 -1.480469 L 23.164062 0.421875 C 21.8125 1.292969 20.316406 1.921875 18.675781 2.3125 C 17.074219 2.679688 15.492188 2.867188 13.929688 2.867188 L 13.902344 2.867188 L 13.871094 2.863281 C 10.75 2.78125 8 2.132812 5.609375 0.917969 C 3.195312 -0.265625 1.074219 -2.171875 -0.757812 -4.792969 L -2.0625 -6.660156 L 8.324219 -13.816406 L 9.5625 -11.75 C 9.75 -11.4375 9.988281 -11.167969 10.28125 -10.9375 L 10.320312 -10.910156 L 10.359375 -10.878906 C 10.714844 -10.570312 11.113281 -10.316406 11.546875 -10.109375 L 11.621094 -10.074219 L 11.695312 -10.035156 C 12.085938 -9.816406 12.5 -9.65625 12.941406 -9.558594 L 13 -9.546875 L 13.054688 -9.53125 C 13.515625 -9.402344 13.933594 -9.335938 14.316406 -9.335938 C 14.511719 -9.335938 14.710938 -9.351562 14.910156 -9.375 C 14.691406 -9.347656 14.488281 -9.242188 14.304688 -9.058594 L 14.511719 -9.265625 L 14.765625 -9.414062 C 14.570312 -9.300781 14.417969 -9.125 14.3125 -8.890625 C 14.222656 -8.695312 14.191406 -8.523438 14.210938 -8.367188 L 14.191406 -8.515625 L 14.191406 -8.664062 C 14.191406 -8.511719 14.234375 -8.347656 14.320312 -8.175781 C 14.4375 -7.941406 14.601562 -7.757812 14.816406 -7.625 L 16.015625 -9.542969 L 14.917969 -7.566406 C 14.699219 -7.6875 14.339844 -7.835938 13.835938 -8.011719 L 8.269531 -10.050781 C 7.160156 -10.449219 6.140625 -10.890625 5.207031 -11.375 L 6.253906 -13.382812 L 5.308594 -11.324219 C 4.1875 -11.839844 3.21875 -12.503906 2.402344 -13.316406 L 4.003906 -14.917969 L 2.449219 -13.273438 C 1.546875 -14.125 0.867188 -15.132812 0.414062 -16.289062 L 2.523438 -17.113281 L 0.449219 -16.210938 C -0.0546875 -17.363281 -0.28125 -18.65625 -0.230469 -20.09375 C -0.1875 -22.171875 0.3125 -23.972656 1.261719 -25.496094 L 3.179688 -24.296875 L 1.234375 -25.453125 C 2.109375 -26.921875 3.273438 -28.136719 4.738281 -29.09375 C 6.105469 -29.976562 7.652344 -30.613281 9.375 -31 C 10.960938 -31.367188 12.550781 -31.550781 14.148438 -31.550781 C 15.53125 -31.550781 16.929688 -31.382812 18.34375 -31.050781 L 18.382812 -31.042969 L 18.421875 -31.03125 C 19.789062 -30.65625 21.097656 -30.140625 22.34375 -29.472656 L 22.386719 -29.453125 L 22.425781 -29.429688 C 23.695312 -28.683594 24.8125 -27.765625 25.777344 -26.667969 C 26.800781 -25.503906 27.542969 -24.140625 28.003906 -22.578125 L 28.503906 -20.878906 L 18.5 -15.03125 L 17.378906 -17.0625 C 16.945312 -17.847656 16.449219 -18.457031 15.894531 -18.886719 L 17.277344 -20.675781 L 15.984375 -18.820312 C 15.492188 -19.160156 14.820312 -19.355469 13.964844 -19.40625 L 14.09375 -21.664062 Z M 14.09375 -23.925781 L 14.160156 -23.925781 L 14.222656 -23.921875 C 15.929688 -23.824219 17.378906 -23.363281 18.570312 -22.535156 L 18.613281 -22.5 L 18.660156 -22.46875 C 19.710938 -21.65625 20.605469 -20.582031 21.339844 -19.246094 L 19.359375 -18.152344 L 18.21875 -20.105469 L 24.691406 -23.890625 L 25.832031 -21.9375 L 23.660156 -21.300781 C 23.390625 -22.222656 22.960938 -23.015625 22.378906 -23.679688 C 21.734375 -24.410156 20.988281 -25.027344 20.136719 -25.527344 L 21.28125 -27.476562 L 20.214844 -25.480469 C 19.269531 -25.988281 18.273438 -26.382812 17.230469 -26.667969 L 17.824219 -28.847656 L 17.308594 -26.648438 C 16.234375 -26.898438 15.183594 -27.023438 14.148438 -27.023438 C 12.894531 -27.023438 11.636719 -26.878906 10.367188 -26.585938 C 9.167969 -26.316406 8.117188 -25.890625 7.21875 -25.3125 C 6.339844 -24.734375 5.644531 -24.011719 5.125 -23.140625 L 5.113281 -23.121094 L 5.101562 -23.097656 C 4.589844 -22.28125 4.320312 -21.226562 4.289062 -19.945312 C 4.265625 -19.1875 4.367188 -18.542969 4.597656 -18.015625 L 4.628906 -17.9375 C 4.835938 -17.410156 5.144531 -16.953125 5.558594 -16.5625 L 5.582031 -16.539062 L 5.605469 -16.519531 C 6.035156 -16.089844 6.5625 -15.726562 7.195312 -15.4375 L 7.246094 -15.414062 L 7.300781 -15.386719 C 8.046875 -14.996094 8.890625 -14.636719 9.828125 -14.300781 L 15.34375 -12.28125 C 16.082031 -12.019531 16.675781 -11.765625 17.113281 -11.519531 L 17.164062 -11.492188 L 17.214844 -11.460938 C 17.71875 -11.144531 18.105469 -10.722656 18.367188 -10.199219 C 18.601562 -9.734375 18.714844 -9.222656 18.714844 -8.664062 L 16.453125 -8.664062 L 18.695312 -8.964844 C 18.789062 -8.261719 18.703125 -7.613281 18.429688 -7.015625 C 18.140625 -6.378906 17.679688 -5.875 17.046875 -5.503906 L 15.90625 -7.460938 L 17.503906 -5.859375 C 16.957031 -5.308594 16.277344 -4.984375 15.472656 -4.886719 C 15.085938 -4.835938 14.703125 -4.8125 14.316406 -4.8125 C 13.523438 -4.8125 12.699219 -4.929688 11.84375 -5.167969 L 12.449219 -7.347656 L 11.960938 -5.140625 C 11.082031 -5.335938 10.253906 -5.652344 9.476562 -6.089844 L 10.585938 -8.0625 L 9.621094 -6.015625 C 8.816406 -6.394531 8.078125 -6.871094 7.414062 -7.441406 L 8.886719 -9.160156 L 7.488281 -7.378906 C 6.757812 -7.953125 6.15625 -8.632812 5.683594 -9.421875 L 7.625 -10.585938 L 8.90625 -8.722656 L 2.378906 -4.226562 L 1.097656 -6.089844 L 2.953125 -7.382812 C 4.339844 -5.398438 5.910156 -3.976562 7.664062 -3.113281 C 9.441406 -2.207031 11.550781 -1.722656 13.992188 -1.660156 L 13.929688 0.601562 L 13.929688 -1.660156 C 15.148438 -1.660156 16.382812 -1.804688 17.632812 -2.09375 C 18.769531 -2.359375 19.796875 -2.792969 20.710938 -3.382812 L 20.734375 -3.394531 L 20.757812 -3.410156 C 21.597656 -3.925781 22.289062 -4.605469 22.835938 -5.449219 C 23.355469 -6.257812 23.660156 -7.265625 23.742188 -8.476562 C 23.792969 -9.066406 23.742188 -9.679688 23.582031 -10.3125 L 25.777344 -10.859375 L 23.605469 -10.226562 C 23.4375 -10.800781 23.1875 -11.289062 22.851562 -11.691406 C 22.386719 -12.234375 21.789062 -12.695312 21.0625 -13.074219 L 22.101562 -15.082031 L 21.148438 -13.03125 C 20.199219 -13.472656 19.121094 -13.898438 17.917969 -14.3125 L 12.449219 -16.171875 C 11.773438 -16.398438 11.171875 -16.652344 10.652344 -16.9375 L 11.738281 -18.921875 L 10.726562 -16.898438 C 10.128906 -17.195312 9.664062 -17.609375 9.332031 -18.140625 C 8.988281 -18.679688 8.816406 -19.289062 8.816406 -19.964844 L 11.078125 -19.964844 L 8.832031 -19.714844 C 8.722656 -20.695312 8.984375 -21.550781 9.613281 -22.289062 C 10 -22.75 10.480469 -23.125 11.054688 -23.414062 L 11.160156 -23.464844 L 11.273438 -23.507812 C 11.753906 -23.691406 12.292969 -23.808594 12.882812 -23.859375 C 13.324219 -23.90625 13.726562 -23.925781 14.09375 -23.925781 Z M 14.09375 -23.925781 "/></g></g></g><g fill="#ffffff" fill-opacity="1"><g transform="translate(94.236893, 47.828673)"><g><path d="M 14.191406 -16.671875 C 14.191406 -17.238281 14.160156 -17.765625 14.097656 -18.257812 C 14.066406 -18.492188 14 -18.699219 13.894531 -18.878906 L 15.851562 -20.019531 L 13.941406 -18.804688 C 13.882812 -18.898438 13.792969 -18.980469 13.667969 -19.050781 L 14.808594 -21.007812 L 13.734375 -19.015625 C 13.59375 -19.089844 13.332031 -19.128906 12.945312 -19.128906 C 12.507812 -19.128906 12.101562 -19.0625 11.722656 -18.925781 C 11.328125 -18.789062 10.988281 -18.609375 10.703125 -18.390625 L 10.640625 -18.34375 C 10.230469 -18.050781 9.867188 -17.746094 9.550781 -17.433594 L 7.953125 -19.03125 L 9.621094 -17.503906 C 9.296875 -17.148438 9.019531 -16.800781 8.792969 -16.460938 L 7.027344 -13.8125 L -0.460938 -23.703125 L 0.78125 -25.09375 C 1.46875 -25.863281 2.234375 -26.609375 3.078125 -27.332031 L 4.550781 -25.613281 L 3.039062 -27.292969 C 3.90625 -28.074219 4.890625 -28.761719 6.003906 -29.359375 C 7.101562 -29.949219 8.3125 -30.433594 9.644531 -30.808594 L 9.707031 -30.824219 C 11.058594 -31.164062 12.558594 -31.332031 14.207031 -31.332031 C 16.851562 -31.332031 19.09375 -31.039062 20.925781 -30.457031 L 20.953125 -30.445312 L 20.984375 -30.4375 C 22.933594 -29.757812 24.519531 -28.714844 25.730469 -27.3125 C 26.925781 -25.9375 27.765625 -24.230469 28.253906 -22.191406 C 28.660156 -20.320312 28.863281 -18.152344 28.863281 -15.6875 L 28.863281 2.261719 L 15.484375 2.261719 L 14.566406 -2.234375 L 16.78125 -2.6875 L 18.554688 -1.28125 C 17.480469 0.0742188 16.21875 1.066406 14.777344 1.691406 C 13.390625 2.292969 11.957031 2.589844 10.476562 2.589844 C 9.035156 2.589844 7.695312 2.363281 6.453125 1.902344 C 5.109375 1.421875 3.914062 0.632812 2.863281 -0.464844 C 0.808594 -2.65625 -0.148438 -5.386719 -0.0117188 -8.648438 L -0.0117188 -8.675781 L -0.0078125 -8.703125 C 0.21875 -12.175781 1.488281 -14.777344 3.796875 -16.507812 C 5.921875 -18.089844 8.550781 -18.882812 11.683594 -18.882812 C 12.621094 -18.882812 13.5625 -18.796875 14.5 -18.625 C 15.371094 -18.460938 16.25 -18.234375 17.140625 -17.953125 L 16.453125 -15.796875 L 14.191406 -15.796875 Z M 18.714844 -16.671875 L 18.714844 -12.703125 L 15.769531 -13.640625 C 15.050781 -13.867188 14.355469 -14.046875 13.691406 -14.171875 C 13.019531 -14.292969 12.351562 -14.355469 11.683594 -14.355469 C 9.550781 -14.355469 7.828125 -13.867188 6.511719 -12.890625 C 5.3125 -11.988281 4.644531 -10.496094 4.507812 -8.40625 L 2.25 -8.554688 L 4.507812 -8.460938 C 4.425781 -6.460938 4.96875 -4.839844 6.132812 -3.59375 C 6.691406 -3.011719 7.320312 -2.59375 8.027344 -2.339844 C 8.757812 -2.070312 9.574219 -1.933594 10.476562 -1.933594 C 11.332031 -1.933594 12.167969 -2.109375 12.976562 -2.460938 C 13.726562 -2.785156 14.402344 -3.328125 15.011719 -4.09375 L 18.027344 -7.898438 L 19.546875 -0.453125 L 17.332031 0 L 17.332031 -2.261719 L 26.601562 -2.261719 L 26.601562 0 L 24.335938 0 L 24.335938 -15.6875 C 24.335938 -17.828125 24.175781 -19.644531 23.851562 -21.136719 C 23.535156 -22.460938 23.023438 -23.53125 22.3125 -24.351562 C 21.625 -25.144531 20.6875 -25.75 19.492188 -26.164062 L 20.238281 -28.300781 L 19.550781 -26.144531 C 18.167969 -26.585938 16.382812 -26.804688 14.207031 -26.804688 C 12.929688 -26.804688 11.792969 -26.683594 10.804688 -26.433594 L 10.257812 -28.628906 L 10.867188 -26.453125 C 9.859375 -26.167969 8.953125 -25.808594 8.148438 -25.375 C 7.355469 -24.949219 6.664062 -24.46875 6.066406 -23.929688 L 6.046875 -23.914062 L 6.023438 -23.894531 C 5.332031 -23.300781 4.710938 -22.695312 4.152344 -22.074219 L 2.46875 -23.582031 L 4.273438 -24.949219 L 8.714844 -19.082031 L 6.910156 -17.714844 L 5.027344 -18.96875 C 5.386719 -19.507812 5.804688 -20.035156 6.285156 -20.558594 L 6.316406 -20.597656 L 6.351562 -20.632812 C 6.84375 -21.121094 7.394531 -21.585938 8.007812 -22.023438 L 9.324219 -20.183594 L 7.945312 -21.976562 C 8.609375 -22.488281 9.367188 -22.894531 10.214844 -23.195312 C 11.082031 -23.5 11.992188 -23.652344 12.945312 -23.652344 C 14.09375 -23.652344 15.070312 -23.433594 15.882812 -23 L 15.914062 -22.980469 L 15.949219 -22.960938 C 16.703125 -22.519531 17.308594 -21.945312 17.757812 -21.234375 L 17.78125 -21.195312 L 17.804688 -21.160156 C 18.214844 -20.460938 18.472656 -19.679688 18.589844 -18.820312 C 18.675781 -18.140625 18.714844 -17.425781 18.714844 -16.671875 Z M 15.503906 -8.3125 C 15.332031 -8.390625 15.042969 -8.433594 14.644531 -8.433594 C 14.246094 -8.433594 13.925781 -8.375 13.679688 -8.261719 L 13.632812 -8.238281 C 13.714844 -8.273438 13.800781 -8.355469 13.894531 -8.488281 C 14.039062 -8.683594 14.109375 -8.886719 14.109375 -9.105469 C 14.109375 -9.210938 14.070312 -9.328125 13.992188 -9.460938 C 13.914062 -9.589844 13.828125 -9.679688 13.734375 -9.730469 L 13.816406 -9.6875 L 13.894531 -9.636719 C 14.03125 -9.546875 14.210938 -9.503906 14.425781 -9.503906 C 14.742188 -9.503906 14.953125 -9.542969 15.054688 -9.621094 L 16.453125 -7.84375 L 14.191406 -7.84375 L 14.191406 -10.367188 L 16.453125 -10.367188 Z M 18.714844 -11.8125 L 18.714844 -6.742188 L 17.851562 -6.0625 C 16.929688 -5.339844 15.789062 -4.976562 14.425781 -4.976562 C 13.324219 -4.976562 12.332031 -5.261719 11.445312 -5.832031 L 12.667969 -7.734375 L 11.605469 -5.738281 C 10.960938 -6.078125 10.464844 -6.542969 10.113281 -7.132812 C 9.761719 -7.71875 9.585938 -8.375 9.585938 -9.105469 C 9.585938 -9.871094 9.800781 -10.550781 10.238281 -11.148438 C 10.625 -11.679688 11.148438 -12.09375 11.816406 -12.382812 L 12.722656 -10.3125 L 11.765625 -12.363281 C 12.621094 -12.757812 13.578125 -12.957031 14.644531 -12.957031 C 15.707031 -12.957031 16.625 -12.777344 17.402344 -12.421875 Z M 18.714844 -11.8125 "/></g></g></g><g fill="#3a3a3c" fill-opacity="1"><g transform="translate(2.428843, 47.828673)"><g><path d="M 16.78125 -34.546875 C 18.613281 -34.546875 20.351562 -34.347656 22 -33.953125 C 23.632812 -33.515625 25.078125 -32.851562 26.328125 -31.96875 C 27.566406 -31.0625 28.550781 -29.894531 29.28125 -28.46875 C 29.976562 -27 30.3125 -25.222656 30.28125 -23.140625 C 30.238281 -21.273438 29.941406 -19.613281 29.390625 -18.15625 C 28.804688 -16.6875 27.75 -15.367188 26.21875 -14.203125 L 25.609375 -13.765625 L 31.265625 -3.78125 L 21.109375 1.09375 L 14.3125 -12.234375 L 13.765625 -12.171875 L 13.703125 0 L 2.515625 0 L 2.515625 -34.546875 Z M 13.703125 -25.28125 L 13.703125 -18.859375 L 14.375 -18.859375 C 14.882812 -18.859375 15.410156 -18.878906 15.953125 -18.921875 C 16.472656 -18.953125 16.96875 -19.0625 17.4375 -19.25 C 17.988281 -19.4375 18.460938 -19.785156 18.859375 -20.296875 C 19.265625 -20.765625 19.46875 -21.40625 19.46875 -22.21875 C 19.507812 -23.019531 19.34375 -23.640625 18.96875 -24.078125 C 18.570312 -24.472656 18.117188 -24.765625 17.609375 -24.953125 C 17.242188 -25.097656 16.859375 -25.191406 16.453125 -25.234375 C 16.046875 -25.265625 15.644531 -25.28125 15.25 -25.28125 Z M 13.703125 -25.28125 "/></g></g></g><g fill="#3a3a3c" fill-opacity="1"><g transform="translate(31.550808, 47.828673)"><g><path d="M 16.453125 -16.671875 C 16.453125 -17.328125 16.414062 -17.945312 16.34375 -18.53125 C 16.269531 -19.082031 16.101562 -19.578125 15.84375 -20.015625 C 15.59375 -20.421875 15.25 -20.75 14.8125 -21 C 14.332031 -21.257812 13.707031 -21.390625 12.9375 -21.390625 C 12.25 -21.390625 11.59375 -21.28125 10.96875 -21.0625 C 10.34375 -20.84375 9.796875 -20.550781 9.328125 -20.1875 C 8.816406 -19.820312 8.359375 -19.4375 7.953125 -19.03125 C 7.546875 -18.59375 7.195312 -18.15625 6.90625 -17.71875 L 2.46875 -23.578125 C 3.09375 -24.273438 3.785156 -24.953125 4.546875 -25.609375 C 5.285156 -26.265625 6.128906 -26.847656 7.078125 -27.359375 C 8.023438 -27.878906 9.082031 -28.300781 10.25 -28.625 C 11.425781 -28.914062 12.742188 -29.0625 14.203125 -29.0625 C 16.617188 -29.0625 18.628906 -28.804688 20.234375 -28.296875 C 21.804688 -27.753906 23.066406 -26.929688 24.015625 -25.828125 C 24.972656 -24.734375 25.648438 -23.34375 26.046875 -21.65625 C 26.410156 -19.976562 26.59375 -17.988281 26.59375 -15.6875 L 26.59375 0 L 17.328125 0 L 16.78125 -2.6875 C 15.9375 -1.625 14.96875 -0.859375 13.875 -0.390625 C 12.78125 0.0859375 11.644531 0.328125 10.46875 0.328125 C 9.300781 0.328125 8.222656 0.144531 7.234375 -0.21875 C 6.210938 -0.582031 5.300781 -1.1875 4.5 -2.03125 C 2.882812 -3.75 2.132812 -5.925781 2.25 -8.5625 C 2.425781 -11.332031 3.394531 -13.378906 5.15625 -14.703125 C 6.875 -15.984375 9.050781 -16.625 11.6875 -16.625 C 12.488281 -16.625 13.289062 -16.546875 14.09375 -16.390625 C 14.863281 -16.242188 15.648438 -16.046875 16.453125 -15.796875 Z M 16.453125 -10.359375 C 15.972656 -10.578125 15.367188 -10.6875 14.640625 -10.6875 C 13.910156 -10.6875 13.269531 -10.5625 12.71875 -10.3125 C 12.132812 -10.050781 11.84375 -9.648438 11.84375 -9.109375 C 11.84375 -8.484375 12.117188 -8.023438 12.671875 -7.734375 C 13.179688 -7.398438 13.765625 -7.234375 14.421875 -7.234375 C 15.265625 -7.234375 15.941406 -7.4375 16.453125 -7.84375 Z M 16.453125 -10.359375 "/></g></g></g><g fill="#3a3a3c" fill-opacity="1"><g transform="translate(57.656347, 47.828673)"><g><path d="M 12.453125 0 L 2.296875 0 L 2.296875 -28.6875 L 12.453125 -28.6875 Z M 7.34375 -43.65625 C 8.082031 -43.65625 8.796875 -43.5625 9.484375 -43.375 C 10.140625 -43.15625 10.742188 -42.828125 11.296875 -42.390625 C 11.804688 -41.953125 12.242188 -41.40625 12.609375 -40.75 C 12.941406 -40.09375 13.125 -39.304688 13.15625 -38.390625 C 13.195312 -37.328125 13.050781 -36.429688 12.71875 -35.703125 C 12.394531 -34.929688 11.957031 -34.3125 11.40625 -33.84375 C 10.820312 -33.332031 10.164062 -32.960938 9.4375 -32.734375 C 8.664062 -32.515625 7.894531 -32.40625 7.125 -32.40625 C 6.363281 -32.445312 5.632812 -32.613281 4.9375 -32.90625 C 4.207031 -33.164062 3.585938 -33.550781 3.078125 -34.0625 C 2.523438 -34.570312 2.117188 -35.210938 1.859375 -35.984375 C 1.566406 -36.742188 1.476562 -37.640625 1.59375 -38.671875 C 1.664062 -39.546875 1.882812 -40.289062 2.25 -40.90625 C 2.570312 -41.53125 3.007812 -42.046875 3.5625 -42.453125 C 4.070312 -42.847656 4.65625 -43.15625 5.3125 -43.375 C 5.976562 -43.5625 6.65625 -43.65625 7.34375 -43.65625 Z M 7.34375 -43.65625 "/></g></g></g><g fill="#3a3a3c" fill-opacity="1"><g transform="translate(69.447599, 47.828673)"><g><path d="M 14.09375 -21.65625 C 13.800781 -21.65625 13.472656 -21.640625 13.109375 -21.609375 C 12.703125 -21.566406 12.351562 -21.492188 12.0625 -21.390625 C 11.769531 -21.242188 11.535156 -21.0625 11.359375 -20.84375 C 11.140625 -20.582031 11.046875 -20.289062 11.078125 -19.96875 C 11.078125 -19.488281 11.296875 -19.140625 11.734375 -18.921875 C 12.140625 -18.703125 12.613281 -18.5 13.15625 -18.3125 L 18.640625 -16.453125 C 19.921875 -16.015625 21.078125 -15.554688 22.109375 -15.078125 C 23.085938 -14.566406 23.90625 -13.925781 24.5625 -13.15625 C 25.113281 -12.5 25.519531 -11.734375 25.78125 -10.859375 C 26 -9.984375 26.070312 -9.125 26 -8.28125 C 25.882812 -6.707031 25.460938 -5.351562 24.734375 -4.21875 C 24.003906 -3.082031 23.070312 -2.171875 21.9375 -1.484375 C 20.800781 -0.753906 19.539062 -0.222656 18.15625 0.109375 C 16.726562 0.441406 15.320312 0.609375 13.9375 0.609375 C 11.15625 0.535156 8.722656 -0.03125 6.640625 -1.09375 C 4.554688 -2.113281 2.707031 -3.78125 1.09375 -6.09375 L 7.625 -10.578125 C 7.945312 -10.035156 8.367188 -9.5625 8.890625 -9.15625 C 9.398438 -8.71875 9.960938 -8.351562 10.578125 -8.0625 C 11.171875 -7.726562 11.796875 -7.488281 12.453125 -7.34375 C 13.109375 -7.164062 13.726562 -7.078125 14.3125 -7.078125 C 14.601562 -7.078125 14.894531 -7.09375 15.1875 -7.125 C 15.476562 -7.164062 15.71875 -7.273438 15.90625 -7.453125 C 16.34375 -7.710938 16.523438 -8.117188 16.453125 -8.671875 C 16.453125 -9.066406 16.304688 -9.359375 16.015625 -9.546875 C 15.679688 -9.722656 15.207031 -9.921875 14.59375 -10.140625 L 9.046875 -12.171875 C 8.023438 -12.535156 7.09375 -12.9375 6.25 -13.375 C 5.375 -13.78125 4.625 -14.296875 4 -14.921875 C 3.34375 -15.535156 2.847656 -16.265625 2.515625 -17.109375 C 2.148438 -17.953125 1.988281 -18.921875 2.03125 -20.015625 C 2.0625 -21.703125 2.445312 -23.128906 3.1875 -24.296875 C 3.875 -25.460938 4.804688 -26.429688 5.984375 -27.203125 C 7.109375 -27.929688 8.40625 -28.460938 9.875 -28.796875 C 11.300781 -29.117188 12.726562 -29.28125 14.15625 -29.28125 C 15.351562 -29.28125 16.578125 -29.132812 17.828125 -28.84375 C 19.035156 -28.519531 20.1875 -28.066406 21.28125 -27.484375 C 22.34375 -26.859375 23.273438 -26.085938 24.078125 -25.171875 C 24.878906 -24.253906 25.460938 -23.175781 25.828125 -21.9375 L 19.359375 -18.15625 C 18.773438 -19.21875 18.082031 -20.054688 17.28125 -20.671875 C 16.4375 -21.253906 15.375 -21.582031 14.09375 -21.65625 Z M 14.09375 -21.65625 "/></g></g></g><g fill="#3a3a3c" fill-opacity="1"><g transform="translate(94.236893, 47.828673)"><g><path d="M 16.453125 -16.671875 C 16.453125 -17.328125 16.414062 -17.945312 16.34375 -18.53125 C 16.269531 -19.082031 16.101562 -19.578125 15.84375 -20.015625 C 15.59375 -20.421875 15.25 -20.75 14.8125 -21 C 14.332031 -21.257812 13.707031 -21.390625 12.9375 -21.390625 C 12.25 -21.390625 11.59375 -21.28125 10.96875 -21.0625 C 10.34375 -20.84375 9.796875 -20.550781 9.328125 -20.1875 C 8.816406 -19.820312 8.359375 -19.4375 7.953125 -19.03125 C 7.546875 -18.59375 7.195312 -18.15625 6.90625 -17.71875 L 2.46875 -23.578125 C 3.09375 -24.273438 3.785156 -24.953125 4.546875 -25.609375 C 5.285156 -26.265625 6.128906 -26.847656 7.078125 -27.359375 C 8.023438 -27.878906 9.082031 -28.300781 10.25 -28.625 C 11.425781 -28.914062 12.742188 -29.0625 14.203125 -29.0625 C 16.617188 -29.0625 18.628906 -28.804688 20.234375 -28.296875 C 21.804688 -27.753906 23.066406 -26.929688 24.015625 -25.828125 C 24.972656 -24.734375 25.648438 -23.34375 26.046875 -21.65625 C 26.410156 -19.976562 26.59375 -17.988281 26.59375 -15.6875 L 26.59375 0 L 17.328125 0 L 16.78125 -2.6875 C 15.9375 -1.625 14.96875 -0.859375 13.875 -0.390625 C 12.78125 0.0859375 11.644531 0.328125 10.46875 0.328125 C 9.300781 0.328125 8.222656 0.144531 7.234375 -0.21875 C 6.210938 -0.582031 5.300781 -1.1875 4.5 -2.03125 C 2.882812 -3.75 2.132812 -5.925781 2.25 -8.5625 C 2.425781 -11.332031 3.394531 -13.378906 5.15625 -14.703125 C 6.875 -15.984375 9.050781 -16.625 11.6875 -16.625 C 12.488281 -16.625 13.289062 -16.546875 14.09375 -16.390625 C 14.863281 -16.242188 15.648438 -16.046875 16.453125 -15.796875 Z M 16.453125 -10.359375 C 15.972656 -10.578125 15.367188 -10.6875 14.640625 -10.6875 C 13.910156 -10.6875 13.269531 -10.5625 12.71875 -10.3125 C 12.132812 -10.050781 11.84375 -9.648438 11.84375 -9.109375 C 11.84375 -8.484375 12.117188 -8.023438 12.671875 -7.734375 C 13.179688 -7.398438 13.765625 -7.234375 14.421875 -7.234375 C 15.265625 -7.234375 15.941406 -7.4375 16.453125 -7.84375 Z M 16.453125 -10.359375 "/></g></g></g></g></g><g transform="matrix(1, 0, 0, 1, 49, 124)"><g clip-path="url(#38c64ae6b4)"><g fill="#830007" fill-opacity="1"><g transform="translate(0.937206, 9.903621)"><g><path d="M 4.0625 0.109375 C 3.375 0.109375 2.75 -0.0351562 2.1875 -0.328125 C 1.625 -0.628906 1.179688 -1.046875 0.859375 -1.578125 C 0.535156 -2.117188 0.375 -2.726562 0.375 -3.40625 C 0.375 -4.082031 0.535156 -4.6875 0.859375 -5.21875 C 1.179688 -5.757812 1.625 -6.179688 2.1875 -6.484375 C 2.75 -6.785156 3.378906 -6.9375 4.078125 -6.9375 C 4.671875 -6.9375 5.203125 -6.832031 5.671875 -6.625 C 6.148438 -6.414062 6.550781 -6.113281 6.875 -5.71875 L 5.875 -4.796875 C 5.40625 -5.328125 4.832031 -5.59375 4.15625 -5.59375 C 3.738281 -5.59375 3.363281 -5.5 3.03125 -5.3125 C 2.695312 -5.125 2.4375 -4.863281 2.25 -4.53125 C 2.0625 -4.207031 1.96875 -3.832031 1.96875 -3.40625 C 1.96875 -2.988281 2.0625 -2.613281 2.25 -2.28125 C 2.4375 -1.945312 2.695312 -1.6875 3.03125 -1.5 C 3.363281 -1.3125 3.738281 -1.21875 4.15625 -1.21875 C 4.832031 -1.21875 5.40625 -1.488281 5.875 -2.03125 L 6.875 -1.09375 C 6.550781 -0.695312 6.148438 -0.394531 5.671875 -0.1875 C 5.191406 0.0078125 4.65625 0.109375 4.0625 0.109375 Z M 4.0625 0.109375 "/></g></g></g><g fill="#830007" fill-opacity="1"><g transform="translate(8.85751, 9.903621)"><g><path d="M 7.0625 -6.8125 L 7.0625 0 L 5.484375 0 L 5.484375 -2.796875 L 2.390625 -2.796875 L 2.390625 0 L 0.8125 0 L 0.8125 -6.8125 L 2.390625 -6.8125 L 2.390625 -4.125 L 5.484375 -4.125 L 5.484375 -6.8125 Z M 7.0625 -6.8125 "/></g></g></g><g fill="#830007" fill-opacity="1"><g transform="translate(17.507575, 9.903621)"><g><path d="M 0.8125 -6.8125 L 2.390625 -6.8125 L 2.390625 0 L 0.8125 0 Z M 0.8125 -6.8125 "/></g></g></g><g fill="#830007" fill-opacity="1"><g transform="translate(21.487182, 9.903621)"><g><path d="M 7.0625 -6.8125 L 7.0625 0 L 5.765625 0 L 2.359375 -4.140625 L 2.359375 0 L 0.8125 0 L 0.8125 -6.8125 L 2.109375 -6.8125 L 5.5 -2.671875 L 5.5 -6.8125 Z M 7.0625 -6.8125 "/></g></g></g><g fill="#830007" fill-opacity="1"><g transform="translate(30.137247, 9.903621)"><g><path d="M 6.078125 -1.265625 L 6.078125 0 L 0.8125 0 L 0.8125 -6.8125 L 5.953125 -6.8125 L 5.953125 -5.546875 L 2.375 -5.546875 L 2.375 -4.0625 L 5.53125 -4.0625 L 5.53125 -2.84375 L 2.375 -2.84375 L 2.375 -1.265625 Z M 6.078125 -1.265625 "/></g></g></g><g fill="#830007" fill-opacity="1"><g transform="translate(37.454285, 9.903621)"><g><path d="M 3.046875 0.109375 C 2.503906 0.109375 1.984375 0.0351562 1.484375 -0.109375 C 0.984375 -0.253906 0.578125 -0.441406 0.265625 -0.671875 L 0.8125 -1.859375 C 1.101562 -1.640625 1.445312 -1.46875 1.84375 -1.34375 C 2.25 -1.21875 2.65625 -1.15625 3.0625 -1.15625 C 3.507812 -1.15625 3.835938 -1.21875 4.046875 -1.34375 C 4.265625 -1.476562 4.375 -1.65625 4.375 -1.875 C 4.375 -2.039062 4.304688 -2.175781 4.171875 -2.28125 C 4.046875 -2.382812 3.882812 -2.46875 3.6875 -2.53125 C 3.488281 -2.601562 3.222656 -2.675781 2.890625 -2.75 C 2.367188 -2.875 1.941406 -3 1.609375 -3.125 C 1.285156 -3.25 1.003906 -3.445312 0.765625 -3.71875 C 0.523438 -3.988281 0.40625 -4.351562 0.40625 -4.8125 C 0.40625 -5.207031 0.507812 -5.5625 0.71875 -5.875 C 0.9375 -6.195312 1.257812 -6.453125 1.6875 -6.640625 C 2.125 -6.835938 2.65625 -6.9375 3.28125 -6.9375 C 3.71875 -6.9375 4.140625 -6.882812 4.546875 -6.78125 C 4.960938 -6.675781 5.328125 -6.523438 5.640625 -6.328125 L 5.15625 -5.125 C 4.53125 -5.488281 3.898438 -5.671875 3.265625 -5.671875 C 2.828125 -5.671875 2.5 -5.597656 2.28125 -5.453125 C 2.070312 -5.304688 1.96875 -5.117188 1.96875 -4.890625 C 1.96875 -4.648438 2.085938 -4.472656 2.328125 -4.359375 C 2.578125 -4.253906 2.953125 -4.144531 3.453125 -4.03125 C 3.972656 -3.90625 4.398438 -3.78125 4.734375 -3.65625 C 5.066406 -3.53125 5.347656 -3.332031 5.578125 -3.0625 C 5.816406 -2.800781 5.9375 -2.445312 5.9375 -2 C 5.9375 -1.601562 5.828125 -1.242188 5.609375 -0.921875 C 5.390625 -0.609375 5.0625 -0.359375 4.625 -0.171875 C 4.195312 0.015625 3.671875 0.109375 3.046875 0.109375 Z M 3.046875 0.109375 "/></g></g></g><g fill="#830007" fill-opacity="1"><g transform="translate(44.450222, 9.903621)"><g><path d="M 6.078125 -1.265625 L 6.078125 0 L 0.8125 0 L 0.8125 -6.8125 L 5.953125 -6.8125 L 5.953125 -5.546875 L 2.375 -5.546875 L 2.375 -4.0625 L 5.53125 -4.0625 L 5.53125 -2.84375 L 2.375 -2.84375 L 2.375 -1.265625 Z M 6.078125 -1.265625 "/></g></g></g></g></g><g transform="matrix(1, 0, 0, 1, 137, 124)"><g clip-path="url(#096a8eca1b)"><g fill="#830007" fill-opacity="1"><g transform="translate(0.899742, 9.903621)"><g><path d="M 2.390625 -5.546875 L 2.390625 -3.75 L 5.53125 -3.75 L 5.53125 -2.484375 L 2.390625 -2.484375 L 2.390625 0 L 0.8125 0 L 0.8125 -6.8125 L 5.953125 -6.8125 L 5.953125 -5.546875 Z M 2.390625 -5.546875 "/></g></g></g><g fill="#830007" fill-opacity="1"><g transform="translate(7.837306, 9.903621)"><g><path d="M 4.109375 0.109375 C 3.398438 0.109375 2.757812 -0.0390625 2.1875 -0.34375 C 1.625 -0.644531 1.179688 -1.0625 0.859375 -1.59375 C 0.535156 -2.132812 0.375 -2.738281 0.375 -3.40625 C 0.375 -4.070312 0.535156 -4.671875 0.859375 -5.203125 C 1.179688 -5.742188 1.625 -6.164062 2.1875 -6.46875 C 2.757812 -6.78125 3.398438 -6.9375 4.109375 -6.9375 C 4.816406 -6.9375 5.453125 -6.78125 6.015625 -6.46875 C 6.578125 -6.164062 7.019531 -5.742188 7.34375 -5.203125 C 7.675781 -4.671875 7.84375 -4.070312 7.84375 -3.40625 C 7.84375 -2.738281 7.675781 -2.132812 7.34375 -1.59375 C 7.019531 -1.0625 6.578125 -0.644531 6.015625 -0.34375 C 5.453125 -0.0390625 4.816406 0.109375 4.109375 0.109375 Z M 4.109375 -1.21875 C 4.515625 -1.21875 4.878906 -1.3125 5.203125 -1.5 C 5.523438 -1.6875 5.773438 -1.945312 5.953125 -2.28125 C 6.140625 -2.613281 6.234375 -2.988281 6.234375 -3.40625 C 6.234375 -3.832031 6.140625 -4.207031 5.953125 -4.53125 C 5.773438 -4.863281 5.523438 -5.125 5.203125 -5.3125 C 4.878906 -5.5 4.515625 -5.59375 4.109375 -5.59375 C 3.703125 -5.59375 3.335938 -5.5 3.015625 -5.3125 C 2.691406 -5.125 2.4375 -4.863281 2.25 -4.53125 C 2.0625 -4.207031 1.96875 -3.832031 1.96875 -3.40625 C 1.96875 -2.988281 2.0625 -2.613281 2.25 -2.28125 C 2.4375 -1.945312 2.691406 -1.6875 3.015625 -1.5 C 3.335938 -1.3125 3.703125 -1.21875 4.109375 -1.21875 Z M 4.109375 -1.21875 "/></g></g></g><g fill="#830007" fill-opacity="1"><g transform="translate(16.837646, 9.903621)"><g><path d="M 4.109375 0.109375 C 3.398438 0.109375 2.757812 -0.0390625 2.1875 -0.34375 C 1.625 -0.644531 1.179688 -1.0625 0.859375 -1.59375 C 0.535156 -2.132812 0.375 -2.738281 0.375 -3.40625 C 0.375 -4.070312 0.535156 -4.671875 0.859375 -5.203125 C 1.179688 -5.742188 1.625 -6.164062 2.1875 -6.46875 C 2.757812 -6.78125 3.398438 -6.9375 4.109375 -6.9375 C 4.816406 -6.9375 5.453125 -6.78125 6.015625 -6.46875 C 6.578125 -6.164062 7.019531 -5.742188 7.34375 -5.203125 C 7.675781 -4.671875 7.84375 -4.070312 7.84375 -3.40625 C 7.84375 -2.738281 7.675781 -2.132812 7.34375 -1.59375 C 7.019531 -1.0625 6.578125 -0.644531 6.015625 -0.34375 C 5.453125 -0.0390625 4.816406 0.109375 4.109375 0.109375 Z M 4.109375 -1.21875 C 4.515625 -1.21875 4.878906 -1.3125 5.203125 -1.5 C 5.523438 -1.6875 5.773438 -1.945312 5.953125 -2.28125 C 6.140625 -2.613281 6.234375 -2.988281 6.234375 -3.40625 C 6.234375 -3.832031 6.140625 -4.207031 5.953125 -4.53125 C 5.773438 -4.863281 5.523438 -5.125 5.203125 -5.3125 C 4.878906 -5.5 4.515625 -5.59375 4.109375 -5.59375 C 3.703125 -5.59375 3.335938 -5.5 3.015625 -5.3125 C 2.691406 -5.125 2.4375 -4.863281 2.25 -4.53125 C 2.0625 -4.207031 1.96875 -3.832031 1.96875 -3.40625 C 1.96875 -2.988281 2.0625 -2.613281 2.25 -2.28125 C 2.4375 -1.945312 2.691406 -1.6875 3.015625 -1.5 C 3.335938 -1.3125 3.703125 -1.21875 4.109375 -1.21875 Z M 4.109375 -1.21875 "/></g></g></g><g fill="#830007" fill-opacity="1"><g transform="translate(25.837986, 9.903621)"><g><path d="M 0.8125 -6.8125 L 3.90625 -6.8125 C 4.644531 -6.8125 5.296875 -6.671875 5.859375 -6.390625 C 6.429688 -6.109375 6.875 -5.707031 7.1875 -5.1875 C 7.5 -4.675781 7.65625 -4.082031 7.65625 -3.40625 C 7.65625 -2.726562 7.5 -2.128906 7.1875 -1.609375 C 6.875 -1.097656 6.429688 -0.703125 5.859375 -0.421875 C 5.296875 -0.140625 4.644531 0 3.90625 0 L 0.8125 0 Z M 3.828125 -1.296875 C 4.503906 -1.296875 5.046875 -1.484375 5.453125 -1.859375 C 5.859375 -2.242188 6.0625 -2.757812 6.0625 -3.40625 C 6.0625 -4.050781 5.859375 -4.5625 5.453125 -4.9375 C 5.046875 -5.320312 4.503906 -5.515625 3.828125 -5.515625 L 2.390625 -5.515625 L 2.390625 -1.296875 Z M 3.828125 -1.296875 "/></g></g></g></g></g><g fill="#ffffff" fill-opacity="1"><g transform="translate(110.122021, 104.820495)"><g/></g></g><g fill="#ffffff" fill-opacity="1"><g transform="translate(114.660365, 104.820495)"><g/></g></g><g fill="#ffffff" fill-opacity="1"><g transform="translate(119.19871, 104.820495)"><g/></g></g><g fill="#ffffff" fill-opacity="1"><g transform="translate(123.737054, 104.820495)"><g/></g></g><g fill="#ffffff" fill-opacity="1"><g transform="translate(128.275399, 104.820495)"><g/></g></g><g fill="#ffffff" fill-opacity="1"><g transform="translate(132.813743, 104.820495)"><g/></g></g><g fill="#ffffff" fill-opacity="1"><g transform="translate(137.352087, 104.820495)"><g/></g></g><g fill="#ffffff" fill-opacity="1"><g transform="translate(141.890432, 104.820495)"><g/></g></g><g fill="#ffffff" fill-opacity="1"><g transform="translate(146.428776, 104.820495)"><g/></g></g><g fill="#ffffff" fill-opacity="1"><g transform="translate(150.96712, 104.820495)"><g/></g></g><g fill="#ffffff" fill-opacity="1"><g transform="translate(155.505465, 104.820495)"><g/></g></g><g fill="#ffffff" fill-opacity="1"><g transform="translate(160.046387, 104.820495)"><g><path d="M 3.15625 -16.144531 C 3.671875 -16.144531 4.109375 -16.070312 4.464844 -15.921875 C 4.855469 -15.753906 5.167969 -15.511719 5.410156 -15.199219 L 5.417969 -15.1875 L 5.429688 -15.171875 C 5.644531 -14.867188 5.796875 -14.523438 5.882812 -14.140625 L 5.890625 -14.09375 C 5.945312 -13.78125 5.96875 -13.433594 5.96875 -13.046875 C 5.96875 -12.46875 5.835938 -11.90625 5.574219 -11.359375 C 5.335938 -10.855469 5.03125 -10.382812 4.660156 -9.941406 C 4.304688 -9.503906 3.914062 -9.113281 3.484375 -8.769531 C 3.058594 -8.421875 2.644531 -8.125 2.242188 -7.886719 L 1.402344 -7.382812 L 0.648438 -8.890625 L 0.640625 -8.914062 C 0.578125 -9.054688 0.527344 -9.164062 0.480469 -9.246094 C 0.460938 -9.273438 0.449219 -9.296875 0.4375 -9.3125 L 0.4375 -9.316406 C 0.441406 -9.308594 0.449219 -9.300781 0.457031 -9.292969 L -0.535156 -10.285156 L 0.777344 -10.78125 C 1.109375 -10.902344 1.363281 -11.066406 1.542969 -11.261719 L 2.214844 -10.65625 L 1.527344 -11.246094 C 1.734375 -11.484375 1.875 -11.695312 1.957031 -11.878906 L 2.785156 -11.511719 L 2.613281 -10.625 C 1.972656 -10.746094 1.421875 -11.046875 0.96875 -11.523438 L 1.621094 -12.148438 L 0.984375 -11.507812 C 0.460938 -12.03125 0.242188 -12.746094 0.328125 -13.65625 C 0.390625 -14.523438 0.746094 -15.171875 1.382812 -15.597656 C 1.910156 -15.960938 2.5 -16.144531 3.15625 -16.144531 Z M 3.15625 -14.335938 C 2.878906 -14.335938 2.621094 -14.253906 2.386719 -14.089844 C 2.238281 -13.992188 2.152344 -13.789062 2.128906 -13.488281 C 2.097656 -13.140625 2.140625 -12.910156 2.261719 -12.785156 L 2.269531 -12.78125 L 2.277344 -12.773438 C 2.464844 -12.574219 2.691406 -12.449219 2.957031 -12.398438 L 4.074219 -12.183594 L 3.609375 -11.144531 C 3.457031 -10.800781 3.222656 -10.441406 2.902344 -10.066406 L 2.886719 -10.050781 C 2.507812 -9.632812 2.019531 -9.3125 1.414062 -9.085938 L 1.097656 -9.933594 L 1.734375 -10.574219 C 1.917969 -10.390625 2.105469 -10.078125 2.296875 -9.636719 L 1.46875 -9.273438 L 2.277344 -9.679688 L 2.585938 -9.066406 L 1.777344 -8.660156 L 1.3125 -9.4375 C 1.640625 -9.632812 1.984375 -9.878906 2.347656 -10.175781 C 2.679688 -10.445312 2.988281 -10.753906 3.277344 -11.109375 C 3.546875 -11.425781 3.769531 -11.773438 3.945312 -12.144531 C 4.089844 -12.445312 4.160156 -12.746094 4.160156 -13.046875 C 4.160156 -13.332031 4.144531 -13.582031 4.105469 -13.796875 L 5 -13.945312 L 4.117188 -13.75 C 4.085938 -13.890625 4.03125 -14.015625 3.957031 -14.121094 L 4.691406 -14.648438 L 3.976562 -14.09375 C 3.921875 -14.164062 3.859375 -14.214844 3.777344 -14.25 C 3.640625 -14.304688 3.433594 -14.335938 3.15625 -14.335938 Z M 3.15625 -14.335938 "/></g></g></g><g fill="#ffffff" fill-opacity="1"><g transform="translate(165.264405, 104.820495)"><g><path d="M 5.636719 -7.757812 C 5.546875 -7.757812 5.445312 -7.75 5.332031 -7.738281 C 5.246094 -7.730469 5.183594 -7.71875 5.140625 -7.703125 L 4.824219 -8.550781 L 5.226562 -7.742188 C 5.222656 -7.738281 5.21875 -7.738281 5.214844 -7.734375 C 5.222656 -7.738281 5.226562 -7.746094 5.234375 -7.753906 C 5.3125 -7.84375 5.34375 -7.953125 5.328125 -8.082031 L 5.332031 -8.03125 L 5.332031 -7.980469 C 5.332031 -8.0625 5.308594 -8.140625 5.257812 -8.21875 C 5.214844 -8.289062 5.160156 -8.34375 5.097656 -8.375 L 5.109375 -8.367188 L 5.125 -8.359375 C 5.238281 -8.296875 5.378906 -8.238281 5.546875 -8.179688 L 7.746094 -7.433594 C 8.289062 -7.25 8.78125 -7.054688 9.21875 -6.851562 L 9.234375 -6.84375 L 9.253906 -6.832031 C 9.75 -6.574219 10.171875 -6.246094 10.511719 -5.851562 C 10.816406 -5.484375 11.035156 -5.066406 11.175781 -4.59375 L 11.183594 -4.5625 C 11.296875 -4.113281 11.332031 -3.667969 11.292969 -3.234375 C 11.242188 -2.460938 11.023438 -1.78125 10.648438 -1.199219 C 10.28125 -0.628906 9.8125 -0.171875 9.242188 0.179688 L 8.769531 -0.59375 L 9.261719 0.167969 C 8.722656 0.515625 8.121094 0.769531 7.464844 0.925781 C 6.824219 1.070312 6.195312 1.144531 5.570312 1.144531 L 5.546875 1.144531 C 4.296875 1.113281 3.199219 0.851562 2.242188 0.367188 C 1.277344 -0.105469 0.429688 -0.867188 -0.304688 -1.914062 L -0.824219 -2.664062 L 3.328125 -5.523438 L 3.824219 -4.695312 C 3.898438 -4.574219 3.992188 -4.464844 4.109375 -4.371094 L 4.140625 -4.347656 C 4.285156 -4.226562 4.441406 -4.125 4.617188 -4.042969 L 4.648438 -4.027344 L 4.675781 -4.011719 C 4.832031 -3.921875 4.996094 -3.859375 5.171875 -3.820312 L 5.195312 -3.816406 L 5.21875 -3.808594 C 5.402344 -3.757812 5.570312 -3.734375 5.722656 -3.734375 C 5.800781 -3.734375 5.882812 -3.738281 5.960938 -3.746094 C 5.875 -3.738281 5.792969 -3.695312 5.71875 -3.621094 L 5.800781 -3.703125 L 5.902344 -3.761719 C 5.824219 -3.71875 5.765625 -3.648438 5.722656 -3.554688 C 5.6875 -3.476562 5.671875 -3.40625 5.679688 -3.34375 L 5.671875 -3.40625 L 5.671875 -3.464844 C 5.671875 -3.402344 5.691406 -3.335938 5.726562 -3.269531 C 5.773438 -3.175781 5.835938 -3.101562 5.921875 -3.046875 L 6.402344 -3.816406 L 5.964844 -3.023438 C 5.875 -3.074219 5.730469 -3.132812 5.53125 -3.203125 L 3.308594 -4.019531 C 2.863281 -4.175781 2.453125 -4.351562 2.082031 -4.546875 L 2.5 -5.351562 L 2.121094 -4.527344 C 1.671875 -4.734375 1.285156 -5 0.960938 -5.324219 L 1.601562 -5.964844 L 0.980469 -5.304688 C 0.617188 -5.648438 0.347656 -6.050781 0.167969 -6.511719 L 1.007812 -6.839844 L 0.179688 -6.480469 C -0.0195312 -6.941406 -0.113281 -7.457031 -0.09375 -8.035156 C -0.0742188 -8.863281 0.125 -9.585938 0.503906 -10.191406 L 1.273438 -9.714844 L 0.492188 -10.175781 C 0.84375 -10.761719 1.308594 -11.25 1.894531 -11.632812 C 2.441406 -11.984375 3.058594 -12.238281 3.75 -12.394531 C 4.382812 -12.539062 5.019531 -12.613281 5.65625 -12.613281 C 6.210938 -12.613281 6.769531 -12.546875 7.332031 -12.414062 L 7.363281 -12.40625 C 7.910156 -12.257812 8.433594 -12.050781 8.933594 -11.785156 L 8.949219 -11.773438 L 8.964844 -11.765625 C 9.472656 -11.46875 9.917969 -11.101562 10.304688 -10.660156 C 10.714844 -10.195312 11.011719 -9.652344 11.195312 -9.027344 L 11.394531 -8.347656 L 7.394531 -6.007812 L 6.949219 -6.820312 C 6.773438 -7.136719 6.578125 -7.378906 6.355469 -7.550781 L 6.90625 -8.265625 L 6.390625 -7.523438 C 6.195312 -7.660156 5.925781 -7.738281 5.582031 -7.757812 L 5.636719 -8.660156 Z M 5.636719 -9.566406 L 5.660156 -9.566406 L 5.6875 -9.5625 C 6.367188 -9.523438 6.949219 -9.339844 7.421875 -9.007812 L 7.441406 -8.996094 L 7.460938 -8.980469 C 7.878906 -8.65625 8.238281 -8.226562 8.53125 -7.695312 L 7.738281 -7.257812 L 7.285156 -8.039062 L 9.871094 -9.550781 L 10.328125 -8.769531 L 9.460938 -8.515625 C 9.351562 -8.882812 9.179688 -9.203125 8.945312 -9.464844 C 8.6875 -9.757812 8.390625 -10.003906 8.050781 -10.203125 L 8.507812 -10.984375 L 8.082031 -10.1875 C 7.703125 -10.390625 7.304688 -10.546875 6.886719 -10.660156 L 7.125 -11.535156 L 6.917969 -10.652344 C 6.488281 -10.753906 6.070312 -10.804688 5.65625 -10.804688 C 5.15625 -10.804688 4.652344 -10.746094 4.144531 -10.628906 C 3.664062 -10.519531 3.246094 -10.351562 2.886719 -10.121094 C 2.535156 -9.890625 2.257812 -9.597656 2.050781 -9.25 L 2.042969 -9.242188 L 2.039062 -9.234375 C 1.835938 -8.90625 1.726562 -8.488281 1.714844 -7.972656 C 1.707031 -7.671875 1.746094 -7.414062 1.839844 -7.203125 L 1.84375 -7.1875 L 1.851562 -7.171875 C 1.933594 -6.960938 2.058594 -6.777344 2.222656 -6.621094 L 2.230469 -6.613281 L 2.242188 -6.605469 C 2.414062 -6.433594 2.625 -6.289062 2.875 -6.171875 L 2.898438 -6.164062 L 2.917969 -6.152344 C 3.21875 -5.996094 3.554688 -5.851562 3.929688 -5.71875 L 6.132812 -4.910156 C 6.429688 -4.804688 6.664062 -4.703125 6.84375 -4.605469 L 6.882812 -4.582031 C 7.085938 -4.457031 7.238281 -4.289062 7.34375 -4.078125 C 7.4375 -3.890625 7.484375 -3.6875 7.484375 -3.464844 L 6.578125 -3.464844 L 7.472656 -3.582031 C 7.511719 -3.300781 7.476562 -3.042969 7.367188 -2.804688 C 7.253906 -2.550781 7.066406 -2.347656 6.816406 -2.199219 L 6.359375 -2.980469 L 7 -2.34375 C 6.777344 -2.121094 6.507812 -1.992188 6.1875 -1.953125 C 6.03125 -1.933594 5.878906 -1.925781 5.722656 -1.925781 C 5.40625 -1.925781 5.078125 -1.972656 4.734375 -2.066406 L 4.976562 -2.9375 L 4.78125 -2.054688 C 4.429688 -2.132812 4.101562 -2.257812 3.789062 -2.433594 L 4.230469 -3.222656 L 3.847656 -2.40625 C 3.523438 -2.554688 3.230469 -2.746094 2.964844 -2.976562 L 3.550781 -3.660156 L 2.992188 -2.949219 C 2.703125 -3.179688 2.460938 -3.453125 2.273438 -3.765625 L 3.046875 -4.230469 L 3.5625 -3.488281 L 0.953125 -1.6875 L 0.4375 -2.433594 L 1.179688 -2.953125 C 1.734375 -2.160156 2.363281 -1.589844 3.0625 -1.246094 C 3.773438 -0.882812 4.617188 -0.6875 5.59375 -0.664062 L 5.570312 0.242188 L 5.570312 -0.664062 C 6.054688 -0.664062 6.550781 -0.722656 7.050781 -0.835938 C 7.503906 -0.945312 7.914062 -1.117188 8.28125 -1.351562 L 8.289062 -1.359375 L 8.296875 -1.363281 C 8.632812 -1.570312 8.910156 -1.839844 9.128906 -2.179688 C 9.335938 -2.5 9.457031 -2.90625 9.492188 -3.390625 C 9.511719 -3.625 9.492188 -3.871094 9.429688 -4.121094 L 10.304688 -4.339844 L 9.4375 -4.089844 C 9.371094 -4.316406 9.269531 -4.511719 9.136719 -4.671875 C 8.949219 -4.890625 8.710938 -5.074219 8.421875 -5.226562 L 8.835938 -6.03125 L 8.457031 -5.210938 C 8.074219 -5.386719 7.644531 -5.558594 7.164062 -5.722656 L 4.976562 -6.464844 C 4.707031 -6.554688 4.46875 -6.65625 4.257812 -6.769531 L 4.691406 -7.566406 L 4.289062 -6.753906 C 4.050781 -6.875 3.863281 -7.039062 3.730469 -7.25 C 3.59375 -7.46875 3.523438 -7.710938 3.523438 -7.980469 L 4.429688 -7.980469 L 3.53125 -7.882812 C 3.488281 -8.273438 3.589844 -8.617188 3.84375 -8.910156 C 3.996094 -9.097656 4.191406 -9.246094 4.417969 -9.359375 L 4.460938 -9.382812 L 4.507812 -9.398438 C 4.699219 -9.472656 4.914062 -9.519531 5.152344 -9.539062 C 5.328125 -9.558594 5.488281 -9.566406 5.636719 -9.566406 Z M 5.636719 -9.566406 "/></g></g></g><g fill="#3a3a3c" fill-opacity="1"><g transform="translate(110.122021, 104.820495)"><g/></g></g><g fill="#3a3a3c" fill-opacity="1"><g transform="translate(114.660365, 104.820495)"><g/></g></g><g fill="#3a3a3c" fill-opacity="1"><g transform="translate(119.19871, 104.820495)"><g/></g></g><g fill="#3a3a3c" fill-opacity="1"><g transform="translate(123.737054, 104.820495)"><g/></g></g><g fill="#3a3a3c" fill-opacity="1"><g transform="translate(128.275399, 104.820495)"><g/></g></g><g fill="#3a3a3c" fill-opacity="1"><g transform="translate(132.813743, 104.820495)"><g/></g></g><g fill="#3a3a3c" fill-opacity="1"><g transform="translate(137.352087, 104.820495)"><g/></g></g><g fill="#3a3a3c" fill-opacity="1"><g transform="translate(141.890432, 104.820495)"><g/></g></g><g fill="#3a3a3c" fill-opacity="1"><g transform="translate(146.428776, 104.820495)"><g/></g></g><g fill="#3a3a3c" fill-opacity="1"><g transform="translate(150.96712, 104.820495)"><g/></g></g><g fill="#3a3a3c" fill-opacity="1"><g transform="translate(155.505465, 104.820495)"><g/></g></g><g fill="#3a3a3c" fill-opacity="1"><g transform="translate(160.046387, 104.820495)"><g><path d="M 3.15625 -15.234375 C 3.550781 -15.234375 3.875 -15.179688 4.125 -15.078125 C 4.351562 -14.972656 4.539062 -14.828125 4.6875 -14.640625 C 4.832031 -14.441406 4.9375 -14.207031 5 -13.9375 C 5.039062 -13.675781 5.0625 -13.378906 5.0625 -13.046875 C 5.0625 -12.609375 4.957031 -12.175781 4.75 -11.75 C 4.550781 -11.3125 4.289062 -10.898438 3.96875 -10.515625 C 3.644531 -10.128906 3.296875 -9.78125 2.921875 -9.46875 C 2.523438 -9.144531 2.144531 -8.875 1.78125 -8.65625 L 1.46875 -9.265625 C 1.320312 -9.609375 1.195312 -9.832031 1.09375 -9.9375 C 1.5625 -10.101562 1.9375 -10.34375 2.21875 -10.65625 C 2.476562 -10.957031 2.664062 -11.242188 2.78125 -11.515625 C 2.332031 -11.597656 1.945312 -11.804688 1.625 -12.140625 C 1.300781 -12.460938 1.171875 -12.9375 1.234375 -13.5625 C 1.273438 -14.15625 1.492188 -14.582031 1.890625 -14.84375 C 2.265625 -15.101562 2.6875 -15.234375 3.15625 -15.234375 Z M 3.15625 -15.234375 "/></g></g></g><g fill="#3a3a3c" fill-opacity="1"><g transform="translate(165.264405, 104.820495)"><g><path d="M 5.640625 -8.65625 C 5.515625 -8.65625 5.378906 -8.648438 5.234375 -8.640625 C 5.078125 -8.617188 4.941406 -8.585938 4.828125 -8.546875 C 4.703125 -8.492188 4.601562 -8.421875 4.53125 -8.328125 C 4.445312 -8.222656 4.410156 -8.109375 4.421875 -7.984375 C 4.421875 -7.785156 4.507812 -7.644531 4.6875 -7.5625 C 4.851562 -7.476562 5.046875 -7.398438 5.265625 -7.328125 L 7.453125 -6.578125 C 7.960938 -6.398438 8.421875 -6.21875 8.828125 -6.03125 C 9.222656 -5.820312 9.554688 -5.566406 9.828125 -5.265625 C 10.046875 -4.992188 10.203125 -4.6875 10.296875 -4.34375 C 10.390625 -3.988281 10.421875 -3.644531 10.390625 -3.3125 C 10.347656 -2.6875 10.179688 -2.144531 9.890625 -1.6875 C 9.597656 -1.238281 9.222656 -0.875 8.765625 -0.59375 C 8.316406 -0.300781 7.8125 -0.0859375 7.25 0.046875 C 6.6875 0.171875 6.125 0.234375 5.5625 0.234375 C 4.457031 0.210938 3.488281 -0.0078125 2.65625 -0.4375 C 1.820312 -0.84375 1.082031 -1.507812 0.4375 -2.4375 L 3.046875 -4.234375 C 3.179688 -4.015625 3.347656 -3.820312 3.546875 -3.65625 C 3.753906 -3.476562 3.984375 -3.332031 4.234375 -3.21875 C 4.460938 -3.09375 4.707031 -3 4.96875 -2.9375 C 5.238281 -2.863281 5.488281 -2.828125 5.71875 -2.828125 C 5.832031 -2.828125 5.953125 -2.832031 6.078125 -2.84375 C 6.191406 -2.863281 6.285156 -2.910156 6.359375 -2.984375 C 6.535156 -3.085938 6.609375 -3.25 6.578125 -3.46875 C 6.578125 -3.625 6.519531 -3.738281 6.40625 -3.8125 C 6.269531 -3.882812 6.078125 -3.96875 5.828125 -4.0625 L 3.609375 -4.859375 C 3.203125 -5.003906 2.832031 -5.164062 2.5 -5.34375 C 2.144531 -5.507812 1.84375 -5.71875 1.59375 -5.96875 C 1.332031 -6.207031 1.140625 -6.5 1.015625 -6.84375 C 0.867188 -7.175781 0.800781 -7.5625 0.8125 -8 C 0.820312 -8.675781 0.972656 -9.25 1.265625 -9.71875 C 1.546875 -10.175781 1.921875 -10.5625 2.390625 -10.875 C 2.835938 -11.164062 3.359375 -11.378906 3.953125 -11.515625 C 4.515625 -11.640625 5.082031 -11.703125 5.65625 -11.703125 C 6.132812 -11.703125 6.625 -11.644531 7.125 -11.53125 C 7.601562 -11.394531 8.0625 -11.210938 8.5 -10.984375 C 8.925781 -10.734375 9.300781 -10.425781 9.625 -10.0625 C 9.945312 -9.695312 10.179688 -9.265625 10.328125 -8.765625 L 7.734375 -7.25 C 7.503906 -7.675781 7.226562 -8.015625 6.90625 -8.265625 C 6.570312 -8.492188 6.148438 -8.625 5.640625 -8.65625 Z M 5.640625 -8.65625 "/></g></g></g></svg>